<?xml version="1.0" encoding="UTF-8" standalone="no"?>
<!-- Created with Inkscape (http://www.inkscape.org/) -->

<svg
   xmlns:dc="http://purl.org/dc/elements/1.1/"
   xmlns:cc="http://creativecommons.org/ns#"
   xmlns:rdf="http://www.w3.org/1999/02/22-rdf-syntax-ns#"
   xmlns:svg="http://www.w3.org/2000/svg"
   xmlns="http://www.w3.org/2000/svg"
   xmlns:sodipodi="http://sodipodi.sourceforge.net/DTD/sodipodi-0.dtd"
   xmlns:inkscape="http://www.inkscape.org/namespaces/inkscape"
   width="3.5in"
   height="3in"
   viewBox="0 0 315.00001 270.00001"
   id="svg4263"
   version="1.1"
   inkscape:version="0.91 r13725"
   sodipodi:docname="canada.svg">
  <defs
     id="defs4265" />
  <sodipodi:namedview
     id="base"
     pagecolor="#ffffff"
     bordercolor="#666666"
     borderopacity="1.0"
     inkscape:pageopacity="0.0"
     inkscape:pageshadow="2"
     inkscape:zoom="2.8"
     inkscape:cx="160.01349"
     inkscape:cy="118.04633"
     inkscape:document-units="px"
     inkscape:current-layer="layer1"
     showgrid="false"
     units="in"
     inkscape:window-width="1920"
     inkscape:window-height="1056"
     inkscape:window-x="0"
     inkscape:window-y="24"
     inkscape:window-maximized="1" />
  <metadata
     id="metadata4268">
    <rdf:RDF>
      <cc:Work
         rdf:about="">
        <dc:format>image/svg+xml</dc:format>
        <dc:type
           rdf:resource="http://purl.org/dc/dcmitype/StillImage" />
        <dc:title></dc:title>
      </cc:Work>
    </rdf:RDF>
  </metadata>
  <g
     inkscape:label="Layer 1"
     inkscape:groupmode="layer"
     id="layer1"
     transform="translate(0,-782.36215)">
    <g
       transform="matrix(0.25121533,0,0,0.25121533,33.414489,788.71483)"
       id="NewfoundlandLabrador"
       class="NFLD"
       style="display:inline;fill:#c6e9af;fill-opacity:1">
      <!-- Newfoundland and Labrador -->
      <!-- NL - Labrador -->
      <path
         inkscape:connector-curvature="0"
         id="Labrador"
         class="NFLD"
         d="m 792.537,699.506 c -1.902,-0.826 -5.712,-1.502 -8.467,-1.502 l -5.008,0 -0.654,-4.088 c -0.359,-2.25 -1.247,-4.902 -1.973,-5.895 -1.17,-1.6 -1.735,-1.652 -5.005,-0.471 -2.027,0.732 -4.151,1.045 -4.72,0.693 -0.568,-0.35 -1.033,-2.879 -1.033,-5.619 0,-4.77 -0.209,-5.133 -4.906,-8.508 -5.809,-4.172 -9.626,-11.164 -7.628,-13.969 0.669,-0.941 2.175,-3.631 3.346,-5.98 1.17,-2.348 3.052,-5.104 4.182,-6.127 1.979,-1.791 2.242,-1.791 7.265,-0.008 5.154,1.83 5.245,1.826 8.193,-0.354 3.295,-2.436 11.139,-2.627 11.907,-0.291 0.232,0.707 -2.412,4.236 -5.877,7.846 -5.802,6.041 -6.168,6.689 -4.637,8.221 2.321,2.322 4.664,2.078 8.709,-0.906 2.571,-1.896 4.77,-2.57 8.396,-2.57 4.4,0 5.075,-0.314 6.48,-3.031 1.566,-3.029 2.079,-7.42 0.992,-8.506 -0.316,-0.316 -1.834,0.053 -3.371,0.818 -3.131,1.563 -7.358,0.91 -7.358,-1.135 0,-0.734 0.937,-3.52 2.08,-6.188 1.161,-2.711 1.808,-5.809 1.463,-7.021 -0.975,-3.432 -6.555,-14.014 -10.397,-19.717 -3.037,-4.506 -3.656,-6.523 -4.578,-14.9 -1.663,-15.121 -2.28,-16.781 -7.037,-18.926 -4.055,-1.83 -5.944,-4.605 -4.607,-6.77 0.382,-0.617 0.834,-3.857 1.006,-7.203 l 0.312,-6.082 -4.466,0 c -4.728,0 -4.767,-0.043 -6.129,-6.83 -0.356,-1.779 -1.528,-4.029 -2.604,-5.002 -2.173,-1.967 -5.545,-11.096 -4.837,-13.094 0.266,-0.75 4.193,2.338 9.479,7.455 13.14,12.719 15.952,15.605 20.823,21.373 2.741,3.248 5.521,5.441 7.424,5.857 2.576,0.566 3.374,1.582 5.219,6.641 1.926,5.283 2.657,6.16 6.337,7.605 l 4.16,1.635 -0.628,4.582 c -0.966,7.039 0.793,10.713 6.249,13.051 2.538,1.088 6.706,2.506 9.262,3.148 2.555,0.645 6.213,2.545 8.128,4.227 2.967,2.605 4.69,3.18 11.656,3.881 4.496,0.453 8.645,1.115 9.218,1.469 0.574,0.355 2.364,-0.135 3.978,-1.088 2.756,-1.629 3.259,-1.627 8.225,0.023 2.909,0.965 5.289,2.156 5.289,2.646 0,0.49 -4.814,5.83 -10.699,11.865 -11.329,11.621 -15.187,17.102 -13.338,18.949 1.636,1.637 6.185,-2.449 9.739,-8.748 1.679,-2.975 5.553,-7.773 8.607,-10.662 5.896,-5.578 7.206,-5.801 11.481,-1.961 1.688,1.516 3.032,1.814 5.815,1.291 3.038,-0.568 4.688,-0.047 10.266,3.252 6.443,3.813 6.631,4.041 6.178,7.547 -0.389,3.02 0.226,4.537 3.709,9.176 2.296,3.055 4.45,6.422 4.786,7.482 0.599,1.885 -2.341,7.703 -6.65,13.164 l -2.026,2.568 -3.673,-4.291 -3.673,-4.291 -11.546,3.9 c -6.351,2.146 -18.714,6.682 -27.476,10.08 -8.762,3.398 -19.826,7.408 -24.588,8.91 -8.21,2.59 -8.861,2.65 -12.61,1.15 -6.119,-2.449 -6.794,-2.152 -7.5,3.301 -1.183,9.117 -1.364,9.51 -4.395,9.465 -1.544,-0.018 -4.364,-0.711 -6.265,-1.537 l 0,0 z"
         style="fill:#c6e9af;fill-opacity:1" />
      <!-- Newfoundland And Labrador - Mainland -->
      <!-- NL - Newfoundland -->
      <path
         inkscape:connector-curvature="0"
         id="Newfoundland"
         d="m 890.997,754.414 c -1.235,-2.309 -0.964,-4.559 1.188,-9.85 1.097,-2.693 1.097,-3.73 0,-5.779 -1.003,-1.873 -1.054,-3.027 -0.204,-4.615 0.677,-1.264 1.139,-8.248 1.148,-17.342 0.021,-19.793 1.608,-38.646 3.572,-42.443 0.852,-1.646 3.192,-4.248 5.202,-5.781 3.434,-2.619 3.758,-2.682 5.396,-1.047 1.957,1.955 2.348,11.965 0.97,24.795 l -0.772,7.195 2.589,-2.904 c 2.128,-2.387 3.128,-2.785 5.622,-2.238 2.444,0.537 3.16,1.35 3.693,4.189 0.844,4.494 2.638,4.551 13.792,0.439 10.006,-3.689 14.863,-3.982 16.465,-0.99 0.616,1.152 0.825,3.023 0.465,4.16 -1.018,3.205 1.291,5.051 6.32,5.051 3.88,0 4.499,0.295 4.499,2.15 0,1.182 -0.92,3.32 -2.045,4.748 -1.383,1.76 -1.854,3.473 -1.455,5.301 1.254,5.762 1.438,5.869 4.143,2.414 3.134,-4.004 4.246,-4.145 5.125,-0.645 0.669,2.668 1.067,2.748 6.564,1.33 1.261,-0.324 1.596,1.143 1.84,8.041 0.26,7.357 0.029,8.705 -1.799,10.533 -2.497,2.498 -4.457,2.664 -6.229,0.529 -1.161,-1.398 -1.507,-1.381 -3.216,0.166 -1.053,0.951 -2.154,1.492 -2.447,1.199 -0.293,-0.295 -1.036,-3.49 -1.65,-7.104 -1.35,-7.941 -3.331,-10.803 -4.431,-6.398 -0.4,1.602 -1.777,4.301 -3.061,5.996 -1.284,1.695 -2.916,5.529 -3.629,8.518 -1.623,6.809 -3.242,8.439 -8.375,8.439 -3.631,0 -3.965,-0.203 -3.066,-1.883 0.555,-1.035 1.728,-2.479 2.605,-3.209 0.879,-0.729 1.598,-2.705 1.598,-4.393 0,-2.512 -0.325,-2.936 -1.798,-2.342 -0.989,0.398 -3.602,0.98 -5.806,1.293 -2.203,0.313 -6.978,2.117 -10.608,4.01 -3.632,1.893 -7.489,3.441 -8.573,3.441 -1.084,0 -6.254,1.615 -11.487,3.59 -5.233,1.975 -9.847,3.592 -10.25,3.596 -0.403,0.006 -1.256,-0.967 -1.895,-2.16 l 0,0 z"
         style="fill:#c6e9af;fill-opacity:1" />
      <!-- Newfoundland And Labrador - Newfoundland Island -->
      <!-- NL -->
    </g>
    <path
       inkscape:connector-curvature="0"
       id="NewBrunswick"
       class="NB"
       d="m 235.00149,997.76796 c -1.46158,-1.69267 -2.13233,-3.11463 -2.37524,-5.03509 -0.0987,-0.78112 -0.36754,-1.63546 -0.59713,-1.89845 -0.54264,-0.62121 -1.6726,-1.19956 -2.34261,-1.19956 -0.45468,0 -0.52905,-0.16272 -0.52905,-1.1568 0,-1.25716 -0.0367,-1.23098 2.13231,-1.52171 0.53384,-0.0718 1.3106,-0.37179 1.72561,-0.66766 1.1988,-0.85366 2.87013,-1.35326 3.96216,-1.18453 0.76294,0.11792 1.22343,0.01 2.08835,-0.49893 1.52111,-0.89148 2.08963,-0.87295 1.81277,0.0592 -0.35596,1.19781 -0.19091,2.49105 0.48788,3.82473 0.85312,1.67657 1.62309,2.34278 2.95856,2.56058 1.06917,0.17465 1.36659,0.45355 0.83504,0.78161 -0.14445,0.0892 -0.8255,0.99659 -1.51383,2.01598 -1.30583,1.93465 -3.38463,4.04896 -3.98051,4.04896 -0.19067,0 -0.59916,0.29034 -0.90764,0.64507 -0.41526,0.47779 -0.81746,0.64565 -1.5465,0.64565 -0.87321,0 -1.12391,-0.16136 -2.21017,-1.41921 l 0,0 z"
       style="display:inline;fill:#c6e9af;fill-opacity:1" />
    <path
       inkscape:connector-curvature="0"
       id="PrinceEdwardIsland"
       class="PEI"
       d="m 246.0022,990.26916 c -1.03024,-0.18842 -2.10492,-0.41601 -2.3883,-0.50591 -0.59991,-0.19045 -0.66697,-0.85511 -0.15702,-1.55254 0.34644,-0.47401 0.38714,-0.46703 1.27116,0.20703 l 0.91317,0.69608 1.76253,-0.37102 c 0.96919,-0.20432 2.09487,-0.45141 2.50109,-0.54994 0.64035,-0.15496 0.72024,-0.11375 0.60041,0.30877 -0.0764,0.26784 -0.21454,0.865 -0.3075,1.32621 -0.15951,0.79178 -0.22959,0.83756 -1.24577,0.81108 -0.59236,-0.0145 -1.91953,-0.18124 -2.94977,-0.36976 l 0,0 z"
       style="display:inline;fill:#c6e9af;fill-opacity:1" />
    <g
       transform="matrix(0.25121533,0,0,0.25121533,33.414489,788.71483)"
       id="NovaScotia"
       class="NS"
       style="display:inline;fill:#c6e9af;fill-opacity:1">
      <!-- Nova Scotia -->
      <!-- NS - Cape Breton Island -->
      <path
         inkscape:connector-curvature="0"
         id="CapeBreton"
         class="NS"
         d="m 880.533,801.842 c -2.045,-2.262 -3.719,-4.689 -3.72,-5.395 -0.006,-2.379 7.348,-20.295 8.33,-20.295 1.228,0 2.978,4.51 2.978,7.674 0,1.658 1.121,3.063 3.621,4.537 1.992,1.176 3.879,2.807 4.193,3.627 0.8,2.082 -2.496,8.633 -4.695,9.33 -1.001,0.318 -2.646,1.49 -3.656,2.607 -1.011,1.115 -2.174,2.029 -2.586,2.029 -0.411,0.002 -2.421,-1.85 -4.465,-4.114 l 0,0 z"
         style="fill:#c6e9af;fill-opacity:1" />
      <!-- Nova Scotia - Cape Breton -->
      <!-- NS - Acadian Peninsula -->
      <path
         inkscape:connector-curvature="0"
         id="AcadianPeninsula"
         class="NS"
         d="m 830.88,861.25 c -2.398,-1.158 -5.092,-5.955 -6.044,-10.764 -1.059,-5.35 9.853,-19.65 20.191,-26.459 5.435,-3.58 3.926,-4.715 -2.148,-1.615 -2.357,1.203 -4.575,1.898 -4.928,1.547 -0.969,-0.971 3.696,-9.18 7.033,-12.377 2.538,-2.432 4.141,-2.93 11.619,-3.611 4.771,-0.434 9.623,-1.297 10.779,-1.916 2.749,-1.471 9.675,-1.439 12.963,0.059 5.054,2.303 4.452,4.648 -3.164,12.35 -3.875,3.918 -8.934,8.326 -11.242,9.795 -2.308,1.469 -5.258,4.221 -6.555,6.115 -1.521,2.219 -3.198,3.443 -4.717,3.443 -1.817,0 -2.643,0.883 -3.604,3.854 -2.09,6.459 -5.023,11.547 -9.395,16.289 -4.273,4.636 -6.559,5.333 -10.788,3.29 l 0,0 z"
         style="fill:#c6e9af;fill-opacity:1" />
      <!-- Nova Scotia - Acadian Peninsula -->
      <!-- NS -->
    </g>
    <g
       id="Quebec"
       class="QUE"
       style="display:inline;fill:#c6e9af;fill-opacity:1"
       transform="matrix(0.25121533,0,0,0.25121533,33.756787,788.60075)">
      <!-- Quebec -->
      <!-- PQ - Anticosti -->
      <path
         inkscape:connector-curvature="0"
         id="QcAnticosti"
         class="QUE"
         d="m 824.799,742.442 c -4.021,-1.525 -7.375,-3.119 -7.451,-3.543 -0.372,-2.068 0.095,-2.674 2.986,-3.871 7.473,-3.096 31.817,1.619 31.817,6.16 0,1.484 -1.041,2.008 -4.882,2.461 -14.18,1.67 -15.001,1.625 -22.47,-1.207 z"
         style="fill:#c6e9af;fill-opacity:1" />
      <!-- Quebec - Anticosti Island -->
      <!-- PQ - Mainland -->
      <path
         inkscape:connector-curvature="0"
         id="QcQuebec"
         class="QUE"
         d="m 710.02068,860.16801 c -0.448,-0.707 -1.516,-2.672 -2.374,-4.367 -2.069,-4.092 -4.926,-4.33 -12.1,-1.008 -7.396,3.426 -14.771,3.723 -18.043,0.729 -3.555,-3.254 -10.354,-6.289 -17.898,-7.986 -9.049,-2.037 -12.369,-3.324 -16.588,-6.432 -6.164,-4.541 -7.093,-8.355 -12.021,-49.352 -2.492,-20.732 -4.802,-39.387 -5.133,-41.455 -0.509,-3.189 -0.276,-3.865 1.529,-4.438 1.442,-0.459 2.142,-1.566 2.167,-3.434 0.02,-1.516 0.697,-3.912 1.505,-5.326 2.206,-3.859 1.935,-5.49 -2.983,-17.885 -2.488,-6.273 -4.845,-13.387 -5.235,-15.809 -0.39,-2.422 -1.759,-5.658 -3.042,-7.193 -1.282,-1.535 -2.684,-3.947 -3.112,-5.359 -0.43,-1.414 -1.294,-3.211 -1.923,-3.992 -0.899,-1.121 -0.164,-2.199 3.466,-5.08 8.165,-6.479 16.98,-16.334 19.848,-22.189 4.295,-8.771 5.079,-14.752 3.156,-24.068 -2.953,-14.313 -6.885,-20.17 -19.244,-28.678 -6.684,-4.602 -7.798,-7.369 -5.423,-13.471 6.956,-17.873 7.088,-20.195 1.782,-31.533 -2.473,-5.285 -3.219,-8.291 -3.219,-12.98 0,-4.416 -0.888,-8.35 -3.208,-14.221 l -3.208,-8.119 1.933,-3.309 c 2.732,-4.678 6.363,-5.602 16.351,-4.158 11.966,1.73 13.91,1.541 19.312,-1.885 4.688,-2.973 4.99,-3.027 8.521,-1.553 2.014,0.842 7.308,3.699 11.766,6.35 6.429,3.824 8.336,5.523 9.226,8.219 0.617,1.869 1.493,3.629 1.947,3.91 0.628,0.387 21.088,4.637 22.404,4.652 0.142,0.002 0.257,2.309 0.257,5.127 0,6.658 4.377,21.668 8.068,27.672 2.524,4.105 3.354,4.719 6.408,4.732 2.34,0.012 5.389,1.297 9.147,3.855 3.102,2.109 6.367,3.836 7.259,3.836 2.238,0 6.208,-4.533 10.188,-11.631 3.232,-5.768 3.978,-10.846 2.964,-20.229 -0.38,-3.523 0.247,-6.922 1.623,-8.795 1.407,-1.918 1.51,-1.875 2.635,1.088 0.644,1.695 2.475,5.164 4.069,7.707 1.594,2.543 3.204,6.359 3.578,8.479 0.654,3.717 0.828,3.854 4.894,3.854 l 4.215,0 -0.652,7.721 c -0.718,8.484 -0.234,9.492 6.208,12.959 2.791,1.502 3.168,2.313 3.818,8.221 1.28,11.629 3.502,20.326 6.069,23.766 1.374,1.84 4.375,7.008 6.669,11.482 3.865,7.541 4.075,8.371 2.862,11.305 -1.277,3.088 -1.459,3.158 -7.215,2.814 -4.969,-0.297 -6.289,0.008 -8.322,1.918 -2.354,2.211 -2.542,2.227 -7.288,0.609 -2.68,-0.914 -5.616,-1.66 -6.525,-1.66 -1.781,0 -8.258,7.758 -8.258,9.891 0,0.713 -0.974,2.947 -2.164,4.965 -1.514,2.564 -1.958,4.514 -1.479,6.48 1.078,4.43 5.224,10.063 9.227,12.535 3.393,2.098 3.666,2.641 3.666,7.285 0,5.861 2.15,7.732 7.827,6.813 3.277,-0.533 3.485,-0.373 4.52,3.467 1.191,4.426 3.407,6.115 8.015,6.115 1.664,0 4.686,0.695 6.715,1.543 2.029,0.848 6.227,1.541 9.328,1.541 l 5.639,0 0.62,-3.854 c 1.432,-8.906 1.116,-8.496 6.012,-7.824 5.392,0.738 10.62,-0.699 32.952,-9.053 9.086,-3.398 22.188,-8.186 29.114,-10.635 l 12.594,-4.455 2.644,3.467 2.644,3.465 -7.126,6.723 c -6.23,5.877 -7.625,7.91 -11.085,16.162 -2.178,5.191 -5.08,10.773 -6.45,12.4 -3.901,4.637 -12.197,8.197 -37.674,16.168 -37.813,11.83 -41.873,13.773 -43.708,20.908 -2.4,9.332 -4.307,14.08 -5.655,14.08 -4.198,0 -12.764,12.848 -20.599,30.896 -6.031,13.895 -11.178,21.184 -24.443,34.619 -6.278,6.359 -11.035,11.563 -10.571,11.563 0.464,0 6.393,-5.201 13.175,-11.557 13.101,-12.277 19.773,-21.076 24.144,-31.83 4.702,-11.572 15.47,-22.865 33.025,-34.637 9.086,-6.092 14.329,-8.256 20.067,-8.283 4.129,-0.018 5.464,0.482 7.965,2.982 4.146,4.145 4.119,9.463 -0.075,15.166 -3.394,4.615 -5.748,5.809 -14.906,7.555 -3.391,0.648 -8.94,2.547 -12.332,4.221 -3.392,1.674 -8.247,3.316 -10.791,3.648 -7.589,0.994 -8.222,1.643 -8.222,8.445 l 0,5.998 -5.031,0.668 c -4.382,0.582 -5.233,1.096 -6.588,3.986 -2.229,4.756 -3.453,9.865 -5.767,24.084 -2.32,14.26 -3.305,16.596 -9.51,22.578 -4.26,4.107 -5.014,4.404 -17.621,6.938 -14.645,2.944 -19.717,3.274 -20.926,1.363 l 0,0 z"
         style="fill:#c6e9af;fill-opacity:1" />
      <!-- Quebec - Mainland -->
      <!-- PQ -->
    </g>
    <path
       inkscape:connector-curvature="0"
       id="Ontario"
       class="ONT"
       d="m 184.03209,1024.0388 c 0.27031,-0.3047 0.619,-0.5559 0.77451,-0.5584 0.66773,-0.01 0.96943,-0.5285 1.18271,-2.0354 0.15049,-1.0641 0.4934,-2.0201 1.01894,-2.8384 0.70943,-1.106 0.79308,-1.4471 0.80239,-3.2772 0.008,-1.5603 0.15447,-2.3777 0.62099,-3.4587 0.56146,-1.3018 0.58005,-1.4749 0.22861,-2.154 -0.51725,-0.9997 -0.34216,-1.0671 0.70742,-0.2723 0.48686,0.3691 1.34778,0.8838 1.91325,1.1448 0.94434,0.4352 1.06566,0.4402 1.48469,0.06 0.93152,-0.8428 0.34165,-2.2785 -1.82659,-4.4473 -0.9295,-0.9298 -1.54448,-1.305 -2.50787,-1.5319 -1.88488,-0.4441 -4.90398,-0.7908 -6.95692,-0.8003 -1.64521,-0.01 -1.92229,-0.089 -3.07637,-0.9097 -1.31989,-0.938 -2.42324,-2.5279 -2.2725,-3.27401 0.10525,-0.52104 -0.7652,-2.29691 -1.37817,-2.81194 -0.24218,-0.20374 -1.2091,-0.77666 -2.1489,-1.27358 -1.52839,-0.80818 -1.73564,-1.01211 -1.96675,-1.93617 -0.38839,-1.554 -0.53913,-1.67861 -2.03486,-1.67861 -0.74737,0 -1.89441,-0.1827 -2.54883,-0.40516 -1.19577,-0.40777 -2.25792,-0.21256 -2.25792,0.41447 0,0.50339 -0.14646,0.66475 -1.92783,2.12042 -2.04489,1.67117 -1.91174,1.64683 -5.98169,1.10986 -2.73624,-0.36074 -3.49214,-0.62499 -6.12337,-2.13826 -0.30472,-0.17562 -1.10183,-0.32079 -1.77083,-0.32283 -0.66923,0 -1.85621,-0.24302 -2.6375,-0.53529 -1.27617,-0.47731 -1.43846,-0.62412 -1.59095,-1.4388 -0.0937,-0.49883 -0.46048,-1.25154 -0.81519,-1.67299 l -0.64462,-0.76657 0.40446,-7.89461 c 0.46676,-9.10507 0.22257,-8.30497 3.65845,-11.97898 1.03577,-1.10735 4.87508,-5.39132 8.53202,-9.5198 3.65694,-4.12803 6.73635,-7.50557 6.84337,-7.50557 0.10702,0 0.97169,0.70463 1.92205,1.56555 1.55174,1.40632 5.34184,3.58912 6.2437,3.59565 0.16655,0 0.86193,0.42885 1.54472,0.95037 l 1.24202,0.94783 3.48964,0.19094 c 1.91926,0.10501 3.82473,0.32025 4.23396,0.47882 0.73808,0.2851 0.74361,0.30368 0.60871,1.98334 -0.10074,1.25757 0.0457,2.58676 0.56722,5.14462 0.78231,3.83883 1.05538,4.36689 3.77504,7.3074 0.87372,0.94452 1.83939,2.2109 2.14688,2.81426 0.53181,1.04412 0.61421,1.09716 1.7153,1.09716 0.63608,0 1.15658,0.0679 1.15658,0.15118 0,0.0834 0.34971,3.13341 0.77676,6.77758 1.51207,12.89537 1.76431,14.12887 3.16632,15.45906 1.12295,1.06506 2.02706,1.48816 4.56961,2.13726 2.528,0.6457 4.38773,1.5377 4.87083,2.3366 0.3105,0.5132 0.48583,0.5545 1.72911,0.4082 0.76118,-0.089 2.21345,-0.4617 3.22761,-0.8272 1.0139,-0.3661 1.8909,-0.6178 1.94918,-0.56 0.0578,0.058 0.13012,0.403 0.16027,0.7659 0.0433,0.5225 -0.64185,1.4136 -3.29116,4.2791 -1.84017,1.9905 -3.55997,3.6995 -3.822,3.798 -0.26202,0.098 -1.50552,0.3896 -2.76362,0.6472 -4.54372,0.9307 -7.21867,3.3884 -4.63442,4.2573 0.91166,0.3067 1.36108,1.0824 0.72902,1.2586 -2.25063,0.627 -3.28262,0.9873 -3.69812,1.291 -0.43713,0.3197 -0.4527,0.417 -0.12788,0.8087 0.34266,0.4127 0.2678,0.4396 -1.0423,0.3743 -2.27299,-0.1138 -2.3898,-0.069 -4.47213,1.7147 -1.58216,1.3553 -2.21169,1.7324 -3.07864,1.845 l -1.09002,0.1415 0.49161,-0.5534 z"
       style="display:inline;fill:#c6e9af" />
    <path
       inkscape:connector-curvature="0"
       id="Manitoba"
       class="MAN"
       d="m 136.73005,989.97029 c -0.78102,-0.0466 -4.09204,-0.37383 -7.3581,-0.7273 -3.26579,-0.35269 -6.09976,-0.64187 -6.29721,-0.64187 -0.44616,0 -0.42555,-0.39109 1.26814,-24.07649 1.24251,-17.37404 1.2827,-17.77096 1.89843,-18.67687 0.4856,-0.71446 0.58256,-1.08624 0.42632,-1.63088 -0.12008,-0.41851 -0.006,-2.22323 0.28009,-4.43016 0.2653,-2.04842 0.55846,-4.33878 0.65116,-5.09015 l 0.16857,-1.36611 1.06062,0.14419 c 1.15032,0.15602 14.70239,1.61583 16.13909,1.73794 l 0.87899,0.0751 -0.0556,2.24662 c -0.0306,1.23548 0.0686,2.47874 0.22057,2.76288 0.17334,0.32384 0.84685,0.6755 1.8105,0.94657 0.84384,0.23638 1.70501,0.61974 1.91351,0.85185 0.42405,0.47104 1.45278,5.44034 1.45278,7.018 0,1.01411 0.005,1.01967 1.01291,1.01967 0.55719,0 1.59948,-0.1354 2.3162,-0.30072 1.10057,-0.25421 1.45453,-0.23512 2.27852,0.12313 0.53685,0.23307 1.52966,0.55691 2.20642,0.71968 0.67677,0.16232 1.28096,0.37688 1.34225,0.4761 0.16279,0.26352 -5.47423,6.80843 -13.96029,16.20789 -4.48243,4.96504 -4.17369,4.12972 -4.6186,12.49594 -0.20649,3.88766 -0.44566,7.79444 -0.53156,8.68184 l -0.15576,1.61374 -1.46409,-0.0485 c -0.80538,-0.0262 -2.10317,-0.0863 -2.88394,-0.13324 l 0,0 z m -4.02723,-7.04823 c -0.0139,-0.49708 -0.22634,-1.71672 -0.47228,-2.71079 -0.24594,-0.99408 -0.50419,-2.09211 -0.57378,-2.44005 -0.0693,-0.34843 -0.64487,-1.15156 -1.2792,-1.78538 l -1.15256,-1.15311 0.0733,-2.47143 c 0.0649,-2.18205 0.13038,-2.48226 0.5592,-2.56415 0.60191,-0.11535 1.70877,0.45145 1.70877,0.87524 0,0.1723 0.47203,1.25655 1.04882,2.40909 0.99582,1.98913 1.09204,2.09521 1.90473,2.09521 1.17945,0 1.54069,0.52046 1.34601,1.94006 -0.12386,0.9034 -0.0782,1.15786 0.20825,1.15786 0.20197,0 0.4449,-0.12607 0.54036,-0.28064 0.10199,-0.16476 0.2688,-0.18532 0.4042,-0.0504 0.13541,0.13538 -0.0404,1.02404 -0.42556,2.15252 -1.00234,2.9351 -0.51373,3.80301 1.34326,2.38652 0.90688,-0.69191 0.91266,-0.708 0.7451,-2.18986 -0.093,-0.82107 -0.39516,-2.15067 -0.67199,-2.95478 -0.27684,-0.8042 -0.63082,-2.22952 -0.78657,-3.16705 -0.63607,-3.8261 -2.17929,-7.6714 -3.32407,-8.28437 -1.14983,-0.61524 -2.47849,0.0716 -3.32333,1.71878 l -0.46299,0.90291 -0.70366,-0.92249 c -0.92447,-1.21186 -1.55954,-1.54699 -2.24059,-1.18244 -0.42807,0.2286 -0.49539,0.44163 -0.36276,1.14853 0.13365,0.71247 0.0663,0.91892 -0.37807,1.15682 -0.78329,0.41902 -0.66824,0.98877 0.39692,1.96402 0.89307,0.81795 0.93025,0.91847 0.77927,2.10036 -0.0874,0.6826 -0.23011,1.60656 -0.31779,2.05245 -0.14721,0.75115 -0.0515,0.89312 1.28422,1.90126 1.53316,1.15728 1.54296,1.17764 2.35062,4.77458 0.55669,2.47729 0.568,2.4993 1.22517,2.40611 0.48334,-0.0679 0.57805,-0.23564 0.55695,-0.98573 l 0,0 z"
       style="display:inline;fill:#c6e9af;fill-opacity:1" />
    <path
       inkscape:connector-curvature="0"
       id="Saskatchewan"
       class="SASK"
       d="m 117.36687,987.93627 c -4.548,-0.53975 -7.28022,-1.03888 -14.7162,-2.6883 -6.734069,-1.49358 -7.745454,-1.75231 -7.745454,-1.97942 0,-0.29868 11.670964,-48.76468 11.765664,-48.85935 0.26855,-0.2683 6.62531,0.0443 7.74523,0.38131 1.28547,0.38715 1.57964,0.34945 1.26461,-0.16051 -0.41727,-0.67526 -6.57958,-3.08518 -7.88816,-3.08518 -0.49062,0 -0.53911,-0.10046 -0.39516,-0.82049 0.0902,-0.45088 0.20575,-0.86212 0.25699,-0.91312 0.0512,-0.0511 3.9712,0.65312 8.71089,1.56505 4.73968,0.91164 9.05355,1.73441 9.58587,1.82813 0.53258,0.0942 0.96619,0.31048 0.96368,0.48182 -0.003,0.17129 -0.28791,2.38504 -0.63433,4.91978 l -0.63004,4.60878 -1.18549,1.26689 -1.18524,1.26739 0.17259,1.52388 c 0.1349,1.19278 0.0814,1.65296 -0.24594,2.11998 -0.6911,0.9873 -0.54765,1.33697 0.35672,0.8695 0.86369,-0.44644 0.84283,-0.48388 0.79033,1.41984 -0.0487,1.76428 -2.325,34.30796 -2.48729,35.56357 -0.16554,1.27918 0.10928,1.2369 -4.49927,0.69035 l 0,0 z"
       style="display:inline;fill:#c6e9af;fill-opacity:1" />
    <path
       inkscape:connector-curvature="0"
       id="Alberta"
       class="ALTA"
       d="m 89.059674,981.9982 c -6.687338,-1.8008 -6.61172,-1.76977 -7.266644,-2.96933 -0.553921,-1.01473 -0.556687,-1.07224 -0.157755,-3.28798 0.368281,-2.04459 0.368527,-2.34531 0.0026,-3.2271 -0.720733,-1.7389 -3.539616,-7.87359 -4.954967,-10.78317 -0.759928,-1.5618 -1.569341,-3.4929 -1.798951,-4.29124 -0.266292,-0.92602 -0.790573,-1.87537 -1.448761,-2.62294 l -1.031237,-1.1717 0.377824,-1.76576 c 0.207755,-0.97145 0.834287,-3.10205 1.391985,-4.73543 1.561556,-4.57038 8.808368,-24.60302 8.952814,-24.74722 0.07035,-0.0706 2.711867,0.70015 5.87014,1.71277 3.158281,1.01263 8.414205,2.6217 11.680258,3.5748 3.26579,0.95339 5.97766,1.76304 6.0264,1.79921 0.0485,0.0364 -0.0977,0.70618 -0.32507,1.48872 -0.259,0.89104 -0.58559,1.47685 -0.87424,1.56858 -0.73379,0.23262 -2.71588,2.3835 -2.50737,2.72113 0.35547,0.57504 1.26688,0.74786 1.88311,0.35724 0.55593,-0.3527 0.58155,-0.34036 0.46023,0.21831 -0.0706,0.32582 -2.62998,11.07157 -5.687522,23.88028 -3.057535,12.80846 -5.559141,23.35229 -5.559141,23.42987 3.3e-4,0.20733 0.01057,0.20956 -5.034107,-1.14904 z"
       style="display:inline;fill:#c6e9af;fill-opacity:1" />
    <g
       transform="matrix(0.25121533,0,0,0.25121533,33.414489,788.71483)"
       id="BritishColumbia"
       class="BC"
       style="display:inline;fill:#c6e9af;fill-opacity:1">
      <!-- British Columbia -->
      <!-- BC - Vancouver Island -->
      <path
         inkscape:connector-curvature="0"
         id="VancouverIsland"
         class="BC"
         d="m 70.576,732.006 c -3.571,-2.291 -10.187,-10.703 -11.319,-14.395 -0.427,-1.391 -1.87,-3.391 -3.207,-4.441 -1.337,-1.05 -2.431,-2.463 -2.431,-3.135 0,-0.672 -3.188,-7.75 -7.084,-15.73 -6.262,-12.82 -10.387,-23.549 -10.387,-27.012 0,-0.633 1.173,-1.684 2.606,-2.338 2.398,-1.092 3.02,-0.783 7.794,3.877 5.922,5.779 17.546,19.469 19.135,22.535 0.586,1.129 1.626,4.83 2.311,8.221 0.741,3.672 2.82,8.682 5.137,12.381 2.331,3.721 4.38,8.668 5.107,12.332 0.668,3.365 1.445,6.928 1.727,7.918 0.724,2.539 -5.309,2.403 -9.389,-0.213 z"
         style="fill:#c6e9af;fill-opacity:1" />
      <!-- British Columbia - Vancouver Island -->
      <!-- BC - Mainland -->
      <path
         inkscape:connector-curvature="0"
         id="BritishColumbiaCordillera"
         class="BC"
         d="m 166.667,753.641 c -21.432,-7.475 -70.625,-25.736 -77.849,-28.9 -3.024,-1.324 -4.368,-2.539 -4.368,-3.947 0,-1.119 -1.503,-4.037 -3.34,-6.484 -6.002,-7.998 -8.824,-12.59 -10.624,-17.289 -0.974,-2.545 -3.78,-7.693 -6.236,-11.443 -2.456,-3.75 -4.465,-7.766 -4.465,-8.924 0,-1.248 -1.882,-3.646 -4.625,-5.895 l -4.625,-3.791 0,-10.189 c 0,-7.641 0.414,-10.82 1.657,-12.717 2.04,-3.113 1.35,-7.762 -2.402,-16.186 -2.378,-5.338 -2.521,-6.352 -1.423,-10.018 0.939,-3.133 0.942,-5.09 0.014,-8.447 -0.664,-2.404 -1.246,-8.475 -1.292,-13.492 -0.095,-10.146 -0.875,-8.816 9.614,-16.387 5.352,-3.861 13.229,-17.49 13.311,-23.031 0.03,-2.021 -1.791,-6.85 -4.651,-12.334 -4.274,-8.195 -4.674,-9.57 -4.405,-15.178 0.686,-14.303 0.158,-35.48 -1.063,-42.65 -3.61,-21.205 -6.786,-28.776 -12.071,-28.776 -1.295,0 -5.261,1.572 -8.813,3.494 -3.552,1.921 -7.5,3.802 -8.771,4.18 -2.218,0.658 -2.313,0.434 -2.313,-5.499 0,-3.401 -0.51,-8.564 -1.134,-11.473 -0.626,-2.92 -0.741,-5.681 -0.257,-6.163 0.483,-0.482 13.336,6.781 28.625,16.177 31.773,19.527 59.897,35.617 78.997,45.199 11.977,6.008 52.285,23.715 57.946,25.453 1.271,0.391 2.312,1.086 2.312,1.543 0,0.457 -6.735,19.734 -14.967,42.838 -18.15,50.938 -25.726,73.467 -26.651,79.256 -0.631,3.953 -0.335,4.859 3.132,9.582 2.106,2.869 5.119,8.387 6.695,12.26 1.576,3.873 8.239,18.646 14.807,32.83 l 11.94,25.787 -0.304,13.854 c -0.185,8.393 -0.71,13.834 -1.333,13.803 -0.565,-0.029 -10.046,-3.199 -21.068,-7.043 l 0,0 z"
         style="fill:#c6e9af;fill-opacity:1" />
      <!-- British Columbia - Mainland -->
      <!-- BC - Queen Charlottes -->
      <path
         inkscape:connector-curvature="0"
         id="QueenCharlottes"
         class="BC"
         d="m 18.35,619.678 c -2.74,-5.773 -3.733,-12.1 -3.754,-23.889 -0.02,-11.383 1.246,-19.012 3.152,-19.012 1.973,0 6.601,2.92 9.56,6.033 3.359,3.533 3.639,2.717 -4.269,12.43 -2.405,2.955 -4.683,6.6 -5.061,8.1 -0.378,1.5 0.072,6.402 1,10.896 0.928,4.492 1.531,8.324 1.341,8.516 -0.19,0.19 -1.076,-1.193 -1.969,-3.074 l 0,0 z"
         style="fill:#c6e9af;fill-opacity:1" />
      <!-- British Columbia - Queen Charlotte Islands -->
      <!-- BC -->
    </g>
    <path
       inkscape:connector-curvature="0"
       id="Yukon"
       class="YK"
       d="m 65.312804,913.40203 c -8.581759,-4.53618 -24.281462,-14.23461 -24.666576,-15.2382 -0.157011,-0.40896 0.119072,-1.19027 0.613469,-1.73639 0.867949,-0.9589 0.82574,-1.02217 -1.228194,-1.8442 -1.169914,-0.46797 -2.12704,-1.13319 -2.12704,-1.47786 0,-0.34469 5.931946,-9.43968 13.182023,-20.21081 8.780223,-13.04462 13.477953,-19.58397 14.068308,-19.58397 0.609449,0 1.2101,0.90539 1.921293,2.89577 0.569252,1.59266 1.327425,3.2454 1.685154,3.67322 0.537351,0.64239 0.354714,1.26813 -1.051085,3.60246 -0.935776,1.55403 -2.031831,3.8265 -2.435784,5.05068 l -0.734553,2.22527 1.718559,1.43472 1.718316,1.43443 -0.835793,2.45284 c -0.743095,2.18103 -0.749876,2.54735 -0.06205,3.30753 0.974464,1.07697 0.997829,2.52718 0.04645,2.89219 -1.505283,0.57754 -1.965258,2.94128 -1.079976,5.54837 1.042544,3.07087 1.143534,5.88747 0.365016,10.18781 -0.571017,3.15549 -0.533834,3.55968 0.526798,5.67994 0.786303,1.57239 1.116653,3.10376 1.061387,4.92058 l -0.08014,2.63828 2.548831,1.19374 c 2.30465,1.07947 2.548832,1.3581 2.548832,2.91257 0,0.94561 -0.174344,1.71534 -0.387375,1.71108 -0.212526,-0.005 -3.504958,-1.65575 -7.315895,-3.67005 z"
       style="display:inline;fill:#c6e9af;fill-opacity:1" />
    <path
       inkscape:connector-curvature="0"
       id="Keewatin"
       class="NU"
       d="m 142.87453,934.30946 c -0.92297,-0.13141 -4.61759,-0.56878 -8.21021,-0.97094 -3.59289,-0.40197 -6.59969,-0.79891 -6.68259,-0.88125 -0.0829,-0.0829 0.35246,-5.44086 0.96743,-11.90712 0.7024,-7.38624 1.02723,-11.84582 0.87373,-11.99758 -0.13441,-0.13238 -3.0907,-1.74265 -6.56954,-3.57832 l -6.32534,-3.33688 -1.38295,-2.0361 c -1.45554,-2.14332 -1.41033,-2.1147 -4.22117,-2.67695 l -1.47287,-0.29493 -5.00648,-6.89033 c -2.75332,-3.78953 -5.431026,-7.48547 -5.950281,-8.213 l -0.943823,-1.32259 1.177956,-3.32463 c 0.64789,-1.82835 1.289238,-3.43713 1.425648,-3.57479 0.15901,-0.16078 1.06591,0.59667 2.53552,2.11725 2.15467,2.22954 3.23665,2.93093 3.89484,2.52424 0.47681,-0.2947 2.03911,1.11786 2.71816,2.45789 0.97998,1.93411 0.89809,2.17627 -0.90741,2.68269 -1.70926,0.47957 -1.98886,1.00088 -1.04329,1.94643 1.21714,1.21713 6.11684,2.07557 8.4446,1.4794 0.80465,-0.20599 0.84485,-0.17083 2.51743,2.19364 1.16615,1.64872 1.702,2.64629 1.70751,3.17838 0.007,0.67851 0.0425,0.71594 0.28539,0.29794 0.17283,-0.2972 0.21227,-1.09031 0.10424,-2.09743 l -0.17333,-1.61958 1.93662,-1.06266 c 2.65709,-1.45828 2.96685,-2.00417 0.67929,-1.19702 -1.49272,0.52681 -2.22476,0.48688 -2.66766,-0.14569 -0.46197,-0.65947 -0.2786,-1.45254 0.44315,-1.91853 0.64813,-0.41851 4.47641,-1.17419 4.97657,-0.98252 0.19143,0.0734 0.53359,0.77148 0.76018,1.55153 0.48132,1.65576 1.92029,3.26579 3.13591,3.50898 0.54239,0.10853 1.04908,0.51773 1.61331,1.3038 0.90363,1.2578 1.42364,1.45602 3.84058,1.4626 0.79888,0 2.11749,0.16072 2.93068,0.35189 1.67335,0.39369 1.48595,0.57282 2.02079,-1.93029 l 0.30874,-1.44527 1.17065,0.21882 c 1.31161,0.24494 3.92726,1.36912 3.93052,1.68914 0.003,0.11433 -0.19745,0.98759 -0.44163,1.9404 -0.4424,1.7259 -0.44189,1.73493 0.12686,2.34034 0.31402,0.33411 0.57429,0.77449 0.57879,0.97849 0.005,0.26505 0.0849,0.23791 0.27861,-0.0949 0.18966,-0.32611 0.18741,-0.70491 -0.008,-1.2649 -0.15324,-0.43964 -0.2786,-1.34799 -0.2786,-2.01871 l 0,-1.21941 1.06717,-0.17084 c 0.72927,-0.1166 1.35003,-0.45343 1.96124,-1.06465 0.85337,-0.85337 0.88705,-0.95617 0.7343,-2.25037 -0.0882,-0.74615 -0.2261,-1.9663 -0.30724,-2.71188 -0.1535,-1.41739 -0.42004,-1.75371 -2.13358,-2.69558 -1.33495,-0.73377 -1.8909,-1.8969 -1.74745,-3.65589 0.0821,-1.00866 -0.0111,-1.87333 -0.28111,-2.60159 -0.52077,-1.40559 -0.28588,-2.33358 0.86595,-3.41981 0.49439,-0.46599 0.86392,-1.01313 0.82172,-1.21566 -0.0877,-0.41727 1.29099,-2.39252 1.81654,-2.60335 0.50369,-0.20195 0.88829,0.0829 2.31319,1.71233 1.18347,1.35354 1.29276,1.59395 1.4676,3.2271 0.13163,1.2332 0.45244,2.27525 1.06491,3.45973 0.98552,1.90547 1.10785,2.62668 0.42606,2.51192 -0.36202,-0.0611 -0.4826,0.17758 -0.61296,1.21486 -0.18567,1.47667 0.23563,2.06977 1.2842,1.80698 0.66723,-0.1673 3.13542,0.55141 3.13542,0.9129 0,0.12416 -0.41577,0.30373 -0.92422,0.3992 -0.5082,0.0952 -0.98804,0.3394 -1.06591,0.54238 -0.0779,0.20298 0.16379,0.93027 0.5371,1.61605 0.37305,0.68561 0.67852,1.60878 0.67852,2.05098 0,1.1822 0.44416,0.97895 0.64087,-0.29323 0.42782,-2.76361 1.22844,-3.78203 2.24913,-2.86056 1.99892,1.80449 2.84074,3.90261 2.12226,5.2916 -0.26177,0.50642 -0.35723,1.09328 -0.25825,1.58816 0.19746,0.9868 1.64696,3.27408 2.07479,3.27408 0.59035,0 1.11867,-0.89131 1.42891,-2.41014 0.38988,-1.90723 1.32089,-4.65096 2.02003,-5.95227 0.53583,-0.99786 0.53609,-1.01064 0.043,-1.97732 -0.66222,-1.29806 -0.89635,-2.87993 -0.52832,-3.56753 0.66221,-1.23746 4.03326,-0.32531 6.9245,1.87356 1.84266,1.40131 1.91099,1.48316 1.62436,1.94722 -0.12309,0.19917 -0.0615,0.70889 0.14595,1.20577 0.47656,1.14053 0.45346,1.58493 -0.0922,1.77036 -0.24845,0.0847 -0.72298,0.38029 -1.05435,0.65739 l -0.60241,0.50347 0.68255,1.39501 c 0.37531,0.76723 0.96593,1.66127 1.31259,1.98686 0.95739,0.89932 0.86143,2.43904 -0.28814,4.62661 -0.94859,1.80574 -1.75247,2.84602 -2.19813,2.84602 -0.14118,0 -0.65316,-0.16578 -1.13802,-0.36852 l -0.88176,-0.36832 0.25173,0.6625 c 0.13867,0.36427 0.21955,0.68805 0.18011,0.71945 -0.0394,0.0312 -0.67426,0.12512 -1.41033,0.20805 -1.087,0.12284 -1.45854,0.0568 -1.97705,-0.35099 -0.67727,-0.53284 -1.85497,-0.65312 -2.48628,-0.2537 -0.32255,0.20423 -0.29316,0.33361 0.1937,0.85185 0.86417,0.91993 0.70891,1.70652 -0.74411,3.76897 -1.22617,1.74043 -1.28949,1.90326 -0.90388,2.32932 0.2281,0.25222 0.41476,0.73451 0.41476,1.07215 0,0.63357 -2.60109,5.22707 -3.16706,5.59355 -0.17511,0.11383 -1.01541,0.32232 -1.86755,0.46475 -1.38745,0.23115 -1.58944,0.34491 -1.93636,1.0918 -0.36603,0.78755 -0.46501,0.83405 -1.807,0.84838 l -1.41987,0.0147 0.70994,0.58133 c 0.58684,0.48036 0.70993,0.78654 0.70993,1.76628 0,1.45532 -0.36677,1.80125 -2.08459,1.96601 -1.06916,0.10303 -1.27994,0.20554 -1.21789,0.59315 0.0412,0.25801 -0.36074,0.99104 -0.89307,1.62889 -2.81486,3.37278 -5.87366,9.36129 -5.87366,11.49938 0,0.90234 -0.1015,0.9179 -3.09899,0.48962 l 0,0 z"
       style="display:inline;fill:#c6e9af" />
    <path
       inkscape:connector-curvature="0"
       id="Southampton"
       class="NU"
       d="m 168.34803,917.65966 c -0.0948,-0.0947 -0.17234,-0.4778 -0.17234,-0.8519 0,-0.93226 -0.44642,-1.29977 -1.5794,-1.29977 -1.90824,0 -2.14512,-0.36751 -1.16916,-1.81199 0.53158,-0.7871 0.62503,-1.30131 0.74962,-4.12598 0.0784,-1.77507 0.34167,-4.01143 0.5856,-4.97004 0.41577,-1.63365 0.48887,-1.74292 1.17016,-1.74292 0.58105,0 0.84484,0.21076 1.31838,1.05284 0.4233,0.75313 0.96115,1.23195 1.88838,1.68084 0.71321,0.34548 2.20115,1.27194 3.30674,2.05921 1.70325,1.21266 2.10545,1.64627 2.63225,2.837 0.61697,1.39553 0.63054,1.40581 1.75774,1.40581 1.79141,0 2.56895,1.2958 1.53871,2.56518 -0.48736,0.60064 -0.91693,0.67073 -2.51718,0.4097 -1.98661,-0.32332 -2.13106,-0.39113 -2.44233,-1.14176 -0.31451,-0.75945 -1.56707,-1.50202 -2.04061,-1.20937 -0.13968,0.0865 -0.33412,0.53335 -0.43259,0.9931 -0.16807,0.78652 -1.0031,1.97929 -2.52899,3.61171 -0.61774,0.66141 -1.66806,0.93527 -2.06498,0.53834 l 0,0 z"
       style="display:inline;fill:#c6e9af" />
    <path
       inkscape:connector-curvature="0"
       id="Coats"
       class="NU"
       d="m 172.73022,921.83511 c -0.27557,-0.71822 0.30874,-2.38356 1.03752,-2.95684 0.96893,-0.76239 3.33613,-0.76091 3.57831,0 0.19294,0.60741 -0.58608,1.89587 -1.61178,2.66565 -0.92525,0.69436 -2.77996,0.87297 -3.00405,0.28913 z"
       style="display:inline;fill:#c6e9af" />
    <path
       inkscape:connector-curvature="0"
       id="Mansel"
       class="NU"
       d="m 182.28645,923.81395 c -1.18372,-1.30812 0.36074,-4.31641 1.58643,-3.09075 0.69034,0.69038 0.0303,3.56276 -0.81872,3.56276 -0.1869,0 -0.53257,-0.21252 -0.76771,-0.47201 z"
       style="display:inline;fill:#c6e9af" />
    <path
       inkscape:connector-curvature="0"
       id="Nottingham"
       class="NU"
       d="m 186.31294,915.85062 c -0.71094,-0.49614 -0.77777,-1.37535 -0.10452,-1.37535 0.63181,0 1.43296,0.91061 1.24101,1.41056 -0.18765,0.48911 -0.39366,0.48286 -1.13649,-0.0352 l 0,0 z"
       style="display:inline;fill:#c6e9af" />
    <path
       inkscape:connector-curvature="0"
       id="Salisbury"
       class="NU"
       d="m 188.05561,913.32843 c 0,-0.51023 0.42004,-0.72576 1.03477,-0.53028 0.81769,0.25899 0.63205,0.90285 -0.26026,0.90285 -0.50243,0 -0.77451,-0.13113 -0.77451,-0.37257 z"
       style="display:inline;fill:#c6e9af" />
    <path
       inkscape:connector-curvature="0"
       id="Baffin"
       class="NU"
       d="m 209.96361,916.29202 c -1.32265,-0.13539 -1.90347,-0.3336 -2.53728,-0.86695 -0.53709,-0.4519 -1.12469,-0.69179 -1.69595,-0.69179 -1.00637,0 -3.54541,-0.88383 -4.54123,-1.58046 -0.71595,-0.50142 -1.11138,-1.41806 -0.71698,-1.66125 0.48134,-0.29794 0.19069,-0.61048 -1.38644,-1.49247 -0.89107,-0.4979 -1.84919,-1.15886 -2.12931,-1.46862 -1.11489,-1.23168 -2.8641,-1.63513 -3.85138,-0.88881 -0.27583,0.20853 -0.78178,0.37932 -1.12469,0.37932 -0.34291,0 -1.08298,0.36381 -1.64446,0.80869 -0.98402,0.7793 -1.08349,0.80213 -2.74803,0.63335 -2.09865,-0.21207 -2.58905,-0.62603 -2.79378,-2.3592 -0.12837,-1.08548 -0.069,-1.3515 0.39341,-1.76927 0.30899,-0.27937 0.54413,-0.80721 0.54413,-1.22146 0,-0.84809 0.19722,-0.91642 3.09824,-1.07698 1.45881,-0.0803 2.24812,-0.27505 3.20098,-0.78829 0.69587,-0.37477 1.43645,-0.68151 1.64596,-0.68151 0.63936,0 0.16205,-1.49525 -0.71243,-2.23108 -0.42808,-0.36023 -0.77827,-0.85813 -0.77827,-1.10632 0,-0.24847 0.59086,-1.6603 1.31311,-3.13721 1.25883,-2.57393 1.30079,-2.72817 1.01037,-3.72075 -0.50368,-1.72181 -1.42639,-3.05753 -3.73606,-5.40939 -1.21112,-1.23327 -2.20216,-2.35091 -2.20216,-2.48402 0,-0.40272 -0.58634,-0.27562 -1.86201,0.40345 -0.66674,0.35497 -1.27566,0.64535 -1.35329,0.64535 -0.36528,0 -0.0827,-1.2636 0.37531,-1.67813 0.28412,-0.25699 0.5165,-0.56322 0.5165,-0.68049 0,-0.38416 -1.22994,-0.53211 -1.81603,-0.21861 -0.69562,0.37234 -1.12946,-0.0995 -0.74763,-0.81288 0.40221,-0.75144 0.29669,-0.93328 -1.32716,-2.28457 -1.63315,-1.35935 -2.04716,-1.43545 -2.04716,-0.37733 l 0,0.63029 -3.08268,0 c -1.83285,0 -3.14947,0.10751 -3.24694,0.26529 -0.22986,0.37182 -8.56845,0.11909 -9.04225,-0.27409 -0.1962,-0.16277 -0.42707,-0.51801 -0.51323,-0.78903 -0.13188,-0.41579 -0.40873,-0.49291 -1.76478,-0.49291 -1.52187,0 -1.65829,-0.0523 -2.53377,-0.9682 -1.94567,-2.03537 -1.93887,-2.90453 0.0229,-2.90453 0.70617,0 1.34702,-0.10275 1.42464,-0.22837 0.1668,-0.26983 -0.88278,-0.71571 -2.23808,-0.95135 -0.8662,-0.15049 -0.99581,-0.27812 -1.25709,-1.23673 -0.97922,-3.59467 1.21063,-12.14979 3.63133,-14.1869 1.03424,-0.87018 2.71489,-1.12491 3.96769,-0.60116 1.08626,0.45372 1.18398,0.91721 0.41954,1.99067 -0.75994,1.06742 -1.79645,4.27891 -1.77911,5.51263 0.0226,1.59447 0.33788,3.06281 0.6823,3.17764 0.16931,0.0568 0.53558,-0.34343 0.81368,-0.88881 0.4444,-0.8707 0.46274,-1.06941 0.15199,-1.63065 -0.54891,-0.99149 -0.46927,-2.66536 0.15374,-3.22909 0.28891,-0.26177 0.73556,-0.94782 0.99181,-1.52462 0.99003,-2.22806 2.40889,-3.23796 4.55378,-3.24193 0.6657,0 0.89734,0.19696 1.59646,1.3661 0.93427,1.56182 1.88462,3.85138 1.88462,4.54017 0,0.63989 0.81269,1.32215 1.56933,1.31738 0.83028,-0.005 1.18676,-0.25846 1.49122,-1.05885 0.27485,-0.72247 1.67813,-1.51883 2.67696,-1.51883 1.31789,0 3.04322,0.81242 3.75769,1.76929 0.38635,0.51801 0.90562,1.09327 1.15458,1.27892 0.24844,0.18544 0.45193,0.50825 0.45193,0.71697 0,0.35898 2.26144,2.67546 2.62117,2.68478 0.0924,0 0.29518,-0.3595 0.45019,-0.80414 0.26378,-0.75642 0.34442,-0.7989 1.25155,-0.65823 0.68181,0.1058 1.16138,0.39743 1.61532,0.98201 0.35497,0.45724 1.13097,1.36287 1.72409,2.01248 1.05009,1.14932 1.10158,1.17266 1.91552,0.86547 0.73104,-0.27585 0.94533,-0.2487 1.69646,0.21576 0.91267,0.564 0.9403,0.62955 0.86243,2.03836 l -0.0499,0.90364 0.64738,-0.6052 c 0.45772,-0.42805 0.80916,-0.5539 1.19981,-0.4298 0.73254,0.23263 1.97431,1.97657 2.17703,3.0578 0.0985,0.52426 0.39314,0.98702 0.75114,1.17847 0.32405,0.17333 0.72826,0.53806 0.89833,0.81037 0.26881,0.43061 0.21028,0.54591 -0.45143,0.88809 -0.41801,0.21626 -0.97095,0.39312 -1.22893,0.39312 -0.39769,0 -0.47429,0.23865 -0.50496,1.57261 l -0.0362,1.5726 2.12679,1.02069 c 1.66051,0.79687 2.54681,1.05436 4.04205,1.17545 1.76479,0.14267 2.00068,0.23291 3.00679,1.15029 0.76546,0.69816 1.32591,0.99559 1.87733,0.99559 0.5876,0 0.85993,0.16276 1.07999,0.64539 0.33738,0.74059 0.36124,0.74508 1.92053,0.35246 0.91317,-0.22989 1.29905,-0.22035 1.79268,0.0437 0.54036,0.28913 0.62904,0.52204 0.62904,1.65552 0,0.75864 -0.16581,1.55528 -0.39014,1.87554 -0.23087,0.32986 -0.28891,0.61956 -0.14194,0.7102 0.361,0.22308 0.0168,2.76867 -0.44614,3.30151 -0.21581,0.24841 -0.54892,0.4519 -0.73984,0.4519 -0.50971,0 -0.42758,0.46327 0.30348,1.71078 l 0.65089,1.11038 -0.6494,0.42555 c -0.61197,0.40096 -0.7451,0.39192 -2.29887,-0.15675 -1.35481,-0.47831 -1.82759,-0.80914 -2.64756,-1.8517 -0.95914,-1.21963 -3.51676,-3.04547 -4.26614,-3.04547 -0.19846,0 -0.61798,0.18037 -0.93252,0.40066 l -0.57175,0.40046 0.55921,0.75615 c 0.52478,0.70991 0.53257,0.78556 0.1271,1.23349 -0.61247,0.67697 -0.53985,0.97469 0.32457,1.33294 0.41602,0.17253 1.21237,0.81418 1.76931,1.42613 0.74108,0.81442 1.40356,1.23599 2.47071,1.57237 0.80188,0.25297 1.45805,0.55443 1.45805,0.66995 0,0.11586 1.0624,1.37871 2.36044,2.80661 l 2.36066,2.59608 -0.14695,2.46289 c -0.0807,1.35429 -0.19698,2.51264 -0.25802,2.57393 -0.20624,0.20605 -5.38656,-1.68012 -6.79009,-2.47193 -1.20433,-0.67953 -2.94776,-1.06265 -2.94776,-0.64716 0,0.44015 2.12201,2.13839 3.46324,2.77117 0.86393,0.40824 2.35541,1.2252 3.31379,1.81602 1.71154,1.05438 1.74268,1.09333 1.74268,2.17604 l 0,1.10259 -2.13004,-0.037 c -1.17193,-0.0205 -2.90231,-0.1158 -3.84561,-0.21252 l 0,0 z"
       style="display:inline;fill:#c6e9af" />
    <path
       inkscape:connector-curvature="0"
       id="AirForce"
       class="NU"
       d="m 190.13167,888.9264 c -0.60192,-0.60188 -0.49944,-1.04329 0.24165,-1.04329 0.82198,0 1.29677,0.29369 1.29677,0.80215 0,0.26875 -0.0485,0.48859 -0.10802,0.48859 -0.0595,0 -0.28287,0.067 -0.49664,0.1492 -0.21429,0.0821 -0.63257,-0.0955 -0.93376,-0.39665 l 0,0 z"
       style="display:inline;fill:#c6e9af" />
    <path
       inkscape:connector-curvature="0"
       id="PrinceCharles"
       class="NU"
       d="m 185.48016,892.7951 c -0.67528,-0.67527 -0.8677,-1.53892 -0.72527,-3.25652 0.14621,-1.76377 0.83957,-2.78543 1.96627,-2.89776 0.5906,-0.0588 0.98502,0.0952 1.45906,0.5693 0.57227,0.57224 0.6499,0.86842 0.6499,2.48572 0,2.16979 -0.25776,2.75311 -1.43243,3.24397 -1.13927,0.47553 -1.30986,0.46276 -1.91753,-0.14471 l 0,0 z"
       style="display:inline;fill:#c6e9af" />
    <path
       inkscape:connector-curvature="0"
       id="Rowley"
       class="NU"
       d="m 179.27764,884.02571 c 0,-0.1337 0.11105,-0.31179 0.24696,-0.39568 0.13589,-0.0839 0.44189,-0.8461 0.67952,-1.69346 0.23766,-0.84735 0.5464,-1.54068 0.68557,-1.54068 0.30273,0 0.0166,2.20363 -0.38562,2.96908 -0.40821,0.77728 -1.22643,1.21788 -1.22643,0.66074 z"
       style="display:inline;fill:#c6e9af" />
    <path
       inkscape:connector-curvature="0"
       id="NunavutVictoria"
       class="NU"
       d="m 130.6112,884.55422 c -1.8193,-0.99933 -4.53192,-2.95177 -4.65953,-3.35392 -0.17862,-0.56253 -0.84711,-0.63534 -1.04708,-0.11409 -0.1575,0.40999 -1.086,0.81571 -2.42598,1.05965 -0.49716,0.0904 -1.30531,0.34688 -1.79619,0.56998 -0.73305,0.33314 -1.50051,0.3763 -4.2993,0.24216 -4.65779,-0.22332 -4.6294,-0.20871 -4.84193,-2.49658 -0.21454,-2.30689 -0.43058,-2.71534 -1.64646,-3.11051 -1.23146,-0.40022 -2.80407,-1.50451 -3.12085,-2.19187 -0.28488,-0.61798 -0.90438,-3.4791 -0.77651,-3.58611 0.0479,-0.0403 3.16582,0.82851 6.92902,1.93012 4.73492,1.38592 6.88958,1.91171 6.99737,1.70676 0.0856,-0.16256 1.07318,-3.92579 2.19461,-8.36248 1.12117,-4.43669 2.11749,-8.06731 2.21395,-8.06805 0.46048,-0.005 1.24503,2.96131 1.24879,4.72009 0.005,2.21397 0.30875,2.9068 0.93026,2.12026 0.34742,-0.43935 0.3831,-1.04982 0.2404,-4.09633 -0.14796,-3.16003 -0.11605,-3.63709 0.27258,-4.0664 0.52855,-0.58383 1.58919,-0.63006 2.34309,-0.10199 0.53936,0.37785 0.54388,0.36926 0.27307,-0.51348 -0.23213,-0.75643 -0.20174,-0.97974 0.19394,-1.4171 0.72023,-0.79562 2.18809,-0.69713 3.05226,0.20497 1.00084,1.04482 0.90639,1.96147 -0.37632,3.65345 l -1.06791,1.40853 0.16731,2.92917 c 0.0919,1.61106 0.28663,3.46178 0.43259,4.11292 0.21077,0.94026 0.17937,1.44249 -0.15248,2.44205 -0.4012,1.20708 -0.39593,1.30408 0.1261,2.38231 0.29919,0.61797 1.293,1.84289 2.20844,2.72215 2.37975,2.28508 2.71262,2.77141 2.71262,3.96344 l 0,1.03296 -1.10887,-0.15198 c -0.6102,-0.0837 -1.30707,-0.22809 -1.54925,-0.32077 -0.60241,-0.23138 -0.57326,0.42027 0.0764,1.6934 0.67829,1.32948 0.65141,1.95398 -0.11731,2.72267 -0.49993,0.49996 -0.89508,0.63206 -1.87181,0.62582 -0.68155,-0.005 -1.47111,-0.13489 -1.75499,-0.2912 l 0,0 z"
       style="display:inline;fill:#c6e9af" />
    <path
       inkscape:connector-curvature="0"
       id="NunavutMelville"
       class="NU"
       d="m 129.44932,846.86563 c -0.35496,-0.1439 -1.03098,-0.20041 -1.502,-0.12607 -0.84358,0.13312 -0.85413,0.12284 -0.69789,-0.69033 0.0874,-0.45423 0.38236,-1.58094 0.65568,-2.5039 0.27357,-0.92294 0.67275,-2.72369 0.88729,-4.00159 0.68582,-4.08426 1.14077,-5.03687 2.04564,-4.28599 0.26604,0.22081 0.32483,0.94359 0.24696,3.03466 l -0.102,2.74505 1.29276,-0.153 c 1.13097,-0.13387 1.34249,-0.0829 1.6859,0.40771 0.22007,0.31401 0.3929,1.10941 0.3929,1.80728 3.3e-4,2.94451 -2.39458,4.78313 -4.90524,3.76618 l 0,0 z"
       style="display:inline;fill:#c6e9af" />
    <path
       inkscape:connector-curvature="0"
       id="ByamMartin"
       class="NU"
       d="m 134.7138,846.79283 c -0.23037,-0.60093 0.37832,-1.44 1.04456,-1.44 0.44314,0 0.6833,0.20702 0.87371,0.75263 0.1442,0.41374 0.1942,0.82049 0.11105,0.90365 -0.312,0.31173 -1.89115,0.14345 -2.02932,-0.21628 l 0,0 z"
       style="display:inline;fill:#c6e9af" />
    <path
       inkscape:connector-curvature="0"
       id="Lougheed"
       class="NU"
       d="m 136.07288,833.77885 c -0.44867,-0.4959 -0.52404,-1.07746 -0.26479,-2.04515 0.27961,-1.04355 0.98577,-0.57452 1.45831,0.96819 0.1452,0.47478 -0.22911,1.54925 -0.53986,1.54925 -0.12435,0 -0.41878,-0.21279 -0.65366,-0.47229 l 0,0 z"
       style="display:inline;fill:#c6e9af" />
    <path
       inkscape:connector-curvature="0"
       id="NunavutBorden"
       class="NU"
       d="m 131.6555,825.39428 c 0,-0.11329 0.32709,-1.66204 0.39416,-1.86803 0.11732,-0.358 0.22107,-0.21028 0.20022,0.28437 -0.0224,0.53333 -0.17007,1.14153 -0.34692,1.42941 -0.12185,0.19846 -0.24746,0.27659 -0.24746,0.15425 l 0,0 z"
       style="display:inline;fill:#c6e9af" />
    <path
       inkscape:connector-curvature="0"
       id="EllefRingnes"
       class="NU"
       d="m 143.78972,829.69509 c -1.39576,-1.48946 -1.76029,-1.82582 -2.22779,-2.05594 -0.42004,-0.20677 -0.47756,-0.2173 -1.38269,-0.25273 -0.8265,-0.0321 -0.97321,-0.0548 -1.1777,-0.18137 -0.27684,-0.17108 -0.64914,-0.57001 -0.79459,-0.85113 -0.33537,-0.64864 -0.0793,-1.59119 0.47254,-1.73991 0.32758,-0.0882 0.75289,-0.41276 0.85087,-0.64915 0.20071,-0.48458 -0.10023,-1.25507 -0.76445,-1.95671 -0.55997,-0.59161 -0.72953,-0.91066 -0.72953,-1.37214 0,-0.6524 0.43133,-1.1277 1.14252,-1.2591 0.89006,-0.16454 2.08283,0.51149 2.20065,1.2473 0.0505,0.31602 0.29718,0.6009 0.57904,0.66873 0.55494,0.13365 1.25785,0.75138 1.76279,1.54925 0.49363,0.78027 0.83001,1.27441 1.1287,1.65827 0.40472,0.52027 0.4218,0.68205 0.16782,1.61004 -0.24594,0.89883 -0.2364,1.16664 0.0552,1.56106 0.56348,0.76166 0.84709,1.22466 0.84635,1.38242 -0.003,0.41603 -0.50746,1.18623 -0.88177,1.34275 -0.40671,0.16932 -0.46023,0.13918 -1.24804,-0.70164 z"
       style="display:inline;fill:#c6e9af" />
    <path
       inkscape:connector-curvature="0"
       id="AmundRingnes"
       class="NU"
       d="m 148.40805,830.57761 c -0.6931,-0.28764 -0.89759,-0.58734 -0.90337,-1.32241 l -0.005,-0.48684 -0.38737,-0.52882 c -0.71898,-0.98224 -0.70993,-0.95739 -0.70968,-1.95068 0,-0.77273 0.0168,-0.90789 0.14871,-1.19402 0.18792,-0.40823 0.42984,-0.66221 0.70265,-0.73759 0.37607,-0.10399 0.55167,-0.0216 2.50488,1.17143 l 0.90361,0.55217 0.1123,0.36878 c 0.14495,0.47581 0.25599,1.64019 0.23037,2.41946 l -0.0198,0.61171 -0.64537,0.49941 c -1.05384,0.81521 -1.25734,0.878 -1.9331,0.5974 l 0,0 z"
       style="display:inline;fill:#c6e9af" />
    <path
       inkscape:connector-curvature="0"
       id="Cornwall"
       class="NU"
       d="m 150.54012,833.90143 c -0.33161,-0.0828 -0.9727,-0.41124 -1.25155,-0.64109 -0.64965,-0.53534 -0.62226,-1.06943 0.0891,-1.74243 0.88352,-0.8353 1.99064,-0.90866 3.02037,-0.19998 0.56673,0.38991 0.75089,0.90539 0.52077,1.45656 -0.13716,0.32783 -0.67553,0.85186 -1.04229,1.01415 -0.34492,0.15249 -0.96644,0.20499 -1.33647,0.11279 z"
       style="display:inline;fill:#c6e9af" />
    <path
       inkscape:connector-curvature="0"
       id="Bathurst"
       class="NU"
       d="m 144.08011,848.39685 c -0.53634,-0.11786 -0.9938,-0.30123 -1.32917,-0.53313 -0.76245,-0.52652 -1.28522,-1.14977 -1.28447,-1.5304 0,-0.26977 0.17082,-0.51097 0.70869,-1.00382 l 0.45746,-0.41953 -1.69672,0 c -1.65676,0 -1.70223,-0.005 -1.93461,-0.14801 -0.28663,-0.17811 -0.3512,-0.36121 -0.39868,-1.12643 -0.0575,-0.93153 -0.20348,-1.12997 -1.45579,-1.9788 -0.9006,-0.61047 -0.87976,-0.55771 -0.4861,-1.22969 0.26051,-0.44469 0.35647,-0.48865 0.95412,-0.43742 0.94808,0.0811 1.72107,0.38211 1.72107,0.67078 0,0.27886 1.2513,1.64769 1.72409,1.88588 0.16907,0.0851 0.39391,0.13693 0.59538,0.13693 0.44491,0 0.54891,-0.1593 0.55092,-0.84389 0.003,-0.46219 -0.013,-0.51796 -0.19695,-0.74756 -0.10928,-0.13643 -0.33865,-0.34974 -0.50947,-0.47406 -0.64486,-0.46878 -0.97019,-0.75365 -0.9923,-0.86872 -0.0297,-0.15373 0.74384,-0.89306 1.37063,-1.31033 l 0.45897,-0.30572 0.61322,0.01 c 0.71848,0.0113 1.89894,0.16402 2.40187,0.3102 0.19444,0.0568 0.49263,0.19094 0.66244,0.29872 l 0.30876,0.19566 -0.0437,1.52916 c -0.10324,3.62705 -0.21529,5.25417 -0.39767,5.77065 -0.0689,0.19599 -0.0814,0.43611 -0.0505,0.97877 0.0409,0.71395 0.0399,0.72049 -0.13313,0.92648 -0.28387,0.33689 -0.82424,0.41879 -1.61834,0.24443 l 0,0 z"
       style="display:inline;fill:#c6e9af" />
    <path
       inkscape:connector-curvature="0"
       id="Ellesmere"
       class="NU"
       d="m 171.37014,841.09323 c -0.103,-0.15726 -0.1339,-0.33287 -0.0977,-0.55618 0.0425,-0.2625 0.0114,-0.36728 -0.15877,-0.53783 -0.22283,-0.22257 -0.88628,-0.59292 -1.06264,-0.59292 -0.0573,0 -0.29041,0.1643 -0.51851,0.36529 -0.47203,0.4155 -0.57177,0.4293 -1.4156,0.19542 -0.41753,-0.1158 -0.74585,-0.2826 -1.034,-0.52476 -0.66848,-0.56271 -0.64512,-0.5547 -0.8981,-0.31703 -0.14847,0.13943 -0.2507,0.36172 -0.2914,0.63353 -0.0427,0.28539 -0.14746,0.50319 -0.32834,0.68436 l -0.26553,0.26551 -0.95262,-0.0638 c -0.52379,-0.0353 -1.82583,-0.0972 -2.893,-0.13812 -2.03583,-0.0782 -2.36468,-0.14295 -2.79049,-0.55067 -0.11607,-0.11103 -0.24945,-0.30351 -0.29669,-0.42731 -0.13616,-0.35825 -0.10475,-1.90826 0.0462,-2.26924 0.38863,-0.92999 1.47163,-1.97834 2.15695,-2.08813 0.80664,-0.12887 0.82599,-0.416 0.0866,-1.2759 -0.66171,-0.76923 -0.84635,-1.14027 -0.89607,-1.7987 -0.0289,-0.38537 0.006,-0.59615 0.1442,-0.86721 0.33358,-0.65365 0.47478,-0.72299 1.46709,-0.72299 0.79509,0 0.92121,0.0241 1.3058,0.25021 0.45546,0.26779 0.66473,0.5509 0.99608,1.34727 0.26603,0.63934 0.6735,1.22015 0.96592,1.37666 0.19293,0.10324 0.26503,0.1015 0.46501,-0.011 0.13013,-0.0733 0.25097,-0.17735 0.26854,-0.23086 0.0175,-0.0534 -0.23865,-0.4027 -0.57001,-0.77576 -0.83151,-0.93629 -1.14806,-1.41234 -1.20055,-1.80472 -0.0389,-0.28965 0.0118,-0.41225 0.37481,-0.90538 0.23086,-0.31378 0.41979,-0.58509 0.41979,-0.60294 0,-0.0178 -0.56576,-0.053 -1.25709,-0.0779 -1.45053,-0.0523 -1.78011,-0.16428 -1.9949,-0.67876 -0.17636,-0.42181 -0.0972,-0.95213 0.29166,-1.95749 0.18337,-0.47405 0.28261,-0.86467 0.25045,-0.98752 -0.0881,-0.33663 0.8348,-1.14479 1.98135,-1.73489 l 0.95988,-0.49415 1.23975,0.65416 c 0.68155,0.35975 1.30206,0.65417 1.37842,0.65417 0.0899,0 0.15978,-0.12133 0.19646,-0.3424 0.0316,-0.18817 0.0814,-0.43034 0.11104,-0.5381 0.0485,-0.17712 0.008,-0.20198 -0.4336,-0.26228 -0.69938,-0.0957 -0.84887,-0.17006 -1.41863,-0.70567 -0.62854,-0.59059 -0.982,-1.13348 -1.47991,-2.27324 -0.49111,-1.12444 -1.46106,-2.60662 -1.90547,-2.91107 -0.49338,-0.33814 -0.59561,-0.72225 -0.53457,-2.0042 0.0595,-1.25257 0.16453,-1.65978 0.4959,-1.92331 0.22083,-0.1756 0.32331,-0.19142 0.9383,-0.14521 1.23747,0.0929 1.59621,0.32835 2.79148,1.83011 0.96267,1.20961 1.39752,1.69872 1.51058,1.69872 0.25271,0 -0.24569,-1.10811 -0.88153,-1.96124 -1.02094,-1.36937 -0.97974,-1.48895 0.89835,-2.60687 0.75892,-0.45193 1.53417,-0.86819 1.72282,-0.92548 0.28815,-0.0874 0.36076,-0.16203 0.4522,-0.46775 0.0723,-0.24167 0.34368,-0.61196 0.80891,-1.1036 l 0.69964,-0.73957 -0.36,-0.45646 c -0.19769,-0.25096 -0.41902,-0.58985 -0.49112,-0.75314 -0.0723,-0.16304 -0.16403,-0.29669 -0.20423,-0.29669 -0.0399,0 -0.27106,0.35949 -0.51349,0.79887 -1.19228,2.15994 -1.82508,2.6978 -3.36577,2.86008 -0.46048,0.0485 -1.34452,0.17485 -1.96376,0.28061 -0.93226,0.15902 -1.18774,0.1736 -1.48268,0.0854 -0.61647,-0.18463 -0.78882,-0.8687 -0.4846,-1.9253 0.0793,-0.2761 0.16606,-0.62529 0.19269,-0.77601 l 0.048,-0.27383 -0.28086,0.26428 c -0.1545,0.14545 -0.41124,0.52605 -0.57025,0.84584 -0.53886,1.08324 -1.04732,1.26889 -2.07178,0.75691 -0.89358,-0.44641 -1.35555,-1.10359 -1.1272,-1.604 0.16052,-0.35247 0.12887,-0.39968 -0.2683,-0.39968 -0.20423,0 -0.44541,-0.04 -0.5366,-0.0887 -0.21026,-0.11231 -0.46147,-0.73305 -0.46147,-1.13953 0,-0.50091 0.14845,-0.76419 0.82373,-1.46081 0.65642,-0.67702 0.76017,-0.87096 0.46626,-0.87096 -0.0935,0 -0.412,-0.16405 -0.70717,-0.36476 -0.36779,-0.24971 -0.68004,-0.38386 -0.98931,-0.42481 -0.49865,-0.0663 -0.8717,-0.3532 -0.8717,-0.67025 0,-0.29391 0.32558,-0.86368 0.64889,-1.13573 0.16077,-0.13516 0.5695,-0.38537 0.90839,-0.55595 0.33913,-0.17083 0.91794,-0.57302 1.28672,-0.89407 0.83756,-0.72927 0.95914,-0.79183 1.53718,-0.79183 0.68383,0 0.8358,-0.10753 0.76646,-0.54112 -0.0528,-0.32985 -0.0254,-0.38486 0.44616,-0.89784 0.30423,-0.33086 0.52831,-0.66799 0.56775,-0.85439 0.10652,-0.49917 0.27987,-0.62754 0.84886,-0.62754 0.4233,0 0.62151,0.0654 1.26864,0.41802 0.89382,0.48712 0.97974,0.46526 1.0722,-0.27306 0.0467,-0.37357 0.19066,-0.70064 0.61194,-1.38923 0.30297,-0.49539 0.63334,-1.11915 0.7338,-1.3857 0.12536,-0.3326 0.37432,-0.6843 0.79133,-1.11815 0.5964,-0.62051 0.618,-0.63333 1.0727,-0.63333 0.49113,0 0.68557,-0.12661 0.80715,-0.52478 0.0344,-0.11305 0.21127,-0.31855 0.3929,-0.45646 l 0.33059,-0.25096 1.39953,0.0259 1.39927,0.0256 0.93377,-0.37933 c 0.78781,-0.32005 1.0634,-0.38662 1.76378,-0.42531 0.5293,-0.0294 0.95235,-0.006 1.16716,0.065 0.29341,0.0967 0.47354,0.0789 1.39499,-0.13893 0.96039,-0.22683 1.11088,-0.24041 1.62762,-0.14493 0.31326,0.0575 1.02069,0.10475 1.57211,0.10475 1.25682,0 1.46056,0.0698 1.80324,0.61723 0.40143,0.64136 0.80463,0.91066 1.66881,1.1139 0.99656,0.23463 1.34953,0.95762 1.33847,2.74176 -0.007,1.17794 -0.3002,2.49406 -0.73103,3.28564 -0.24318,0.44666 -0.83303,0.95437 -1.43444,1.23397 -0.46577,0.21655 -1.31913,1.31863 -1.85675,2.3976 -0.2321,0.46576 -0.39816,0.87096 -0.36927,0.89986 0.099,0.0987 0.59638,-0.33362 0.93603,-0.81294 0.18616,-0.26277 0.63005,-0.75691 0.98626,-1.09806 0.60392,-0.57855 0.67226,-0.6185 1.01241,-0.59337 0.48082,0.0357 0.59438,0.2673 0.59538,1.21362 0.003,0.97196 -0.0985,1.29476 -0.73179,2.37324 -0.56927,0.96943 -0.81871,1.54245 -0.99356,2.28178 -0.0592,0.25122 -0.51223,1.40128 -1.00637,2.55586 -0.94255,2.20316 -1.25055,3.25551 -1.46535,5.0105 -0.11329,0.92448 -0.26804,1.35705 -0.621,1.73262 -0.31702,0.33789 -0.73405,0.51325 -1.22442,0.515 -0.21479,5.7e-4 -0.44164,0.0336 -0.50369,0.073 -0.0618,0.0395 -0.19519,0.31227 -0.29669,0.60619 -0.10098,0.29392 -0.28737,0.67024 -0.41401,0.83655 -0.25472,0.33386 -1.52562,1.0036 -2.04036,1.07495 -0.3228,0.045 -0.83277,0.45595 -0.83277,0.67175 0,0.0693 0.1437,0.26152 0.31929,0.42732 0.27306,0.25724 0.31954,0.36099 0.31954,0.71144 0,0.28689 -0.0686,0.51096 -0.22835,0.74636 -0.12535,0.18489 -0.22811,0.35246 -0.22811,0.3723 0,0.0198 0.19495,0.0628 0.43385,0.0954 0.78405,0.10777 1.06792,0.21957 1.42791,0.56223 0.83729,0.79736 1.0016,2.04991 0.3419,2.6051 -0.41475,0.34919 -0.41073,0.39717 0.081,0.9403 0.56245,0.621 0.58733,0.91192 0.0984,1.15609 -0.44514,0.22233 -0.4881,0.28589 -0.56246,0.83327 -0.12937,0.95338 -0.82398,1.62839 -1.82383,1.77234 l -0.49614,0.0713 0.0291,1.36812 c 0.0327,1.54826 0.0907,1.3822 -0.876,2.50814 -0.26352,0.30699 -0.47908,0.62805 -0.47882,0.71321 0,0.30522 0.37482,0.75991 0.97473,1.18398 1.07092,0.75741 1.06614,0.75037 1.00535,1.55779 -0.0859,1.13797 -0.50946,2.00617 -1.4269,2.92338 -0.42581,0.42607 -0.8466,0.73934 -1.28974,0.96117 -0.7956,0.3979 -1.20382,0.42652 -1.41862,0.0989 l 0,0 z"
       style="display:inline;fill:#c6e9af" />
    <path
       inkscape:connector-curvature="0"
       id="AxelHeiberg"
       class="NU"
       d="m 155.54131,828.61988 c -0.38661,-0.26376 -0.94983,-0.92271 -1.4156,-1.65626 -0.19093,-0.3002 -0.52077,-0.77199 -0.73353,-1.04807 -0.77652,-1.00813 -1.2988,-2.27953 -1.18524,-2.88496 0.0657,-0.35043 0.49992,-0.89457 0.86216,-1.07946 0.13063,-0.0668 0.41048,-0.15023 0.62227,-0.1854 0.25899,-0.043 0.51222,-0.17812 0.77575,-0.41427 0.47956,-0.42957 0.43436,-0.56573 -0.3125,-0.94279 -0.5022,-0.25348 -0.52605,-0.25651 -1.21213,-0.1525 -1.54196,0.23388 -2.22451,0.0894 -2.42323,-0.51197 -0.0927,-0.28137 -0.0834,-0.41049 0.0608,-0.83781 0.13842,-0.40948 0.14747,-0.51299 0.0477,-0.54664 -0.0678,-0.0226 -0.25975,-0.16152 -0.42706,-0.30824 -0.38135,-0.33487 -0.50268,-0.83805 -0.39392,-1.63315 0.103,-0.75365 0.32131,-1.12922 0.67477,-1.16011 0.88603,-0.0774 1.04506,-0.12386 1.04506,-0.30473 0,-0.24067 -0.21932,-0.5778 -0.74837,-1.14956 -0.49515,-0.53509 -0.53786,-0.75893 -0.26127,-1.36762 0.21153,-0.46575 0.45169,-0.63181 1.10208,-0.76118 0.66773,-0.13264 0.91166,-0.24092 0.91166,-0.40446 0,-0.0747 -0.28914,-0.46374 -0.64311,-0.86418 l -0.64285,-0.72852 0.23186,-0.45798 c 0.28765,-0.56723 0.7122,-1.05836 1.15937,-1.34072 0.34944,-0.22032 0.53182,-0.61397 0.53307,-1.14831 0.003,-0.71722 1.12067,-0.71496 2.22175,0.005 0.40168,0.26252 0.86645,1.10661 1.32491,2.40664 0.43436,1.23021 0.55244,1.42691 1.6638,2.76262 0.67276,0.80867 0.90563,1.20382 0.90563,1.53619 0,0.39516 0.24719,0.82171 0.94734,1.6339 0.37783,0.43836 0.73254,0.88202 0.7883,0.98602 0.0558,0.10401 0.12562,0.47932 0.15525,0.83403 0.0485,0.58006 0.0892,0.68583 0.40296,1.04832 0.19219,0.22182 0.68883,0.69486 1.10409,1.05134 0.41527,0.35622 0.83127,0.76571 0.92398,0.90965 0.25824,0.40044 0.22886,1.24075 -0.0646,1.83915 -0.30647,0.62503 -1.61833,2.26923 -2.28253,2.86085 -0.40094,0.35671 -0.55645,0.57025 -0.65518,0.89859 -0.18464,0.61372 -0.6137,1.32541 -1.13173,1.87732 -0.43183,0.45973 -0.4592,0.4738 -0.79684,0.40422 -0.80641,-0.16606 -0.80539,-0.16657 -0.98302,0.69964 -0.0603,0.29416 -0.24343,0.35044 -1.14804,0.35195 -0.57354,0 -0.73832,-0.0349 -1.00385,-0.21606 l 0,0 z"
       style="display:inline;fill:#c6e9af" />
    <path
       inkscape:connector-curvature="0"
       id="Meighen"
       class="NU"
       d="m 145.6379,816.66178 c -0.58935,-0.62301 -0.76319,-1.09655 -0.58106,-1.5824 0.15449,-0.41274 0.65367,-0.70768 1.03475,-0.61222 0.34869,0.0877 0.73105,0.51047 1.05335,1.16515 0.32582,0.66195 0.29543,0.87623 -0.18163,1.27742 -0.46525,0.3919 -0.77526,0.33387 -1.32541,-0.24795 l 0,0 z"
       style="display:inline;fill:#c6e9af" />
    <path
       inkscape:connector-curvature="0"
       id="Devon"
       class="NU"
       d="m 157.05162,852.23113 c -0.53584,-0.26982 -1.05034,-0.45247 -1.48845,-0.52858 -0.36829,-0.0638 -0.74611,-0.18566 -0.83982,-0.27028 -0.18992,-0.17185 -0.33009,-0.71071 -0.41652,-1.59924 -0.0319,-0.32633 -0.157,-0.98179 -0.27807,-1.4563 -0.253,-0.99104 -0.28766,-2.01905 -0.0907,-2.70306 0.19971,-0.69538 0.26653,-1.68568 0.14394,-2.14015 -0.0588,-0.21883 -0.26377,-0.6283 -0.45546,-0.91062 -0.19166,-0.28238 -0.40746,-0.65443 -0.47956,-0.82754 -0.0724,-0.17282 -0.19245,-0.36473 -0.26653,-0.42629 -0.0744,-0.0616 -0.71949,-0.17635 -1.43395,-0.25522 -0.71445,-0.0786 -1.39424,-0.17941 -1.51056,-0.22361 -0.27257,-0.10375 -1.18649,-1.12569 -1.83939,-2.05693 l -0.51123,-0.72951 0.0399,-0.59417 c 0.047,-0.69436 0.23262,-1.10684 0.56725,-1.25934 0.53283,-0.24291 2.21973,-0.0712 3.06031,0.3118 0.64385,0.29311 0.95787,0.59536 1.2827,1.23497 0.3336,0.65743 0.50369,0.71769 2.02052,0.71769 1.69946,0 1.92958,0.14119 2.12453,1.30256 0.0467,0.2776 0.13163,0.38965 0.44138,0.58106 0.21103,0.13039 0.45447,0.32457 0.54112,0.43184 0.19998,0.24694 0.20826,0.87269 0.0202,1.50628 -0.17334,0.58383 -0.13265,0.72428 0.37607,1.29727 0.42606,0.47984 0.67829,0.8991 0.67829,1.12746 0,0.26983 0.43133,0.40193 2.55585,0.78306 1.1797,0.2115 2.15846,0.39694 2.17452,0.4117 0.0161,0.0147 0.46801,-0.16805 1.00412,-0.40669 0.53609,-0.23865 1.15106,-0.50871 1.36685,-0.60065 0.2158,-0.0919 0.62653,-0.34871 0.91292,-0.57101 0.67526,-0.52453 0.88177,-0.62529 1.43319,-0.69917 0.68379,-0.0916 2.57696,0.0887 3.18867,0.30373 1.19653,0.42055 2.72519,1.63166 3.13918,2.48732 0.23137,0.4778 0.25022,0.80862 0.0663,1.16437 -0.11606,0.22456 -0.1148,0.32729 0.0112,0.84656 0.14246,0.58713 0.14193,0.59315 -0.0819,0.94936 -0.1241,0.19718 -0.27734,0.58435 -0.34091,0.86041 -0.16202,0.70317 -0.27155,0.8398 -0.93651,1.16717 -1.14555,0.56395 -2.86637,0.76341 -3.6999,0.42907 -0.21353,-0.0856 -0.3889,-0.18213 -0.39014,-0.21428 0,-0.0324 -0.0789,-0.15852 -0.17285,-0.2809 l -0.17108,-0.22229 -0.58004,0.37682 c -1.29252,0.83907 -2.01928,0.96339 -5.37249,0.9192 -2.53428,-0.0335 -2.68298,-0.0688 -3.01309,-0.71622 -0.10174,-0.19974 -0.24946,-0.36324 -0.32833,-0.36324 -0.0789,0 -0.39616,0.24091 -0.70566,0.53532 -0.83682,0.79636 -0.79511,0.78881 -1.74595,0.31027 l 0,0 z"
       style="display:inline;fill:#c6e9af" />
    <path
       inkscape:connector-curvature="0"
       id="Somerset"
       class="NU"
       d="m 149.02354,867.59116 c -0.19696,-0.0719 -0.47706,-0.24967 -0.62277,-0.3954 -0.23892,-0.23888 -0.27709,-0.36399 -0.39089,-1.28494 -0.0691,-0.56124 -0.14746,-1.05511 -0.1736,-1.09731 -0.15274,-0.24745 -0.22911,-1.84772 -0.14319,-3.00129 0.13139,-1.76026 0.32383,-2.82366 0.73053,-4.03779 0.1937,-0.5773 0.42004,-1.29624 0.50345,-1.59725 0.0831,-0.30118 0.21955,-0.62399 0.30296,-0.71718 0.25699,-0.28737 0.77198,-0.49718 1.6025,-0.6529 1.19126,-0.22336 1.65626,-0.19724 2.44106,0.13687 0.3698,0.15755 0.95664,0.34622 1.30381,0.41932 0.94859,0.19967 2.51442,1.05532 2.66891,1.45826 0.0684,0.17811 -0.10225,0.57402 -0.53836,1.24855 -0.19669,0.30425 -0.45871,0.83408 -0.58256,1.17744 -0.12386,0.34343 -0.39942,0.92249 -0.61221,1.28699 -0.50117,0.85815 -0.64361,1.19153 -1.00337,2.35136 l -0.29768,0.95839 -1.18323,0.14873 c -1.43293,0.18037 -1.65525,0.23542 -1.72911,0.42733 -0.0314,0.0818 -0.1148,0.69838 -0.18565,1.37036 -0.0706,0.67174 -0.17334,1.27545 -0.22785,1.341 -0.14068,0.1693 -0.82147,0.47654 -1.19202,0.53811 -0.17685,0.0295 -0.46851,-0.005 -0.67073,-0.0786 l 0,0 z"
       style="display:inline;fill:#c6e9af" />
    <path
       inkscape:connector-curvature="0"
       id="Bylot"
       class="NU"
       d="m 176.20226,861.52762 c -0.31174,-0.19599 -0.74358,-0.88455 -1.46633,-2.33858 -0.69009,-1.38797 -1.08174,-2.40241 -0.97021,-2.51367 0.25525,-0.25522 3.34444,-0.26 4.28499,-0.007 0.81897,0.22058 2.2647,1.50775 3.05779,2.7229 0.79686,1.22065 0.62402,1.42942 -1.25029,1.5111 -1.01718,0.0443 -1.16765,0.0749 -1.87132,0.38057 -0.98249,0.4273 -1.40227,0.48456 -1.78463,0.24444 l 0,0 z"
       style="display:inline;fill:#c6e9af" />
    <path
       inkscape:connector-curvature="0"
       id="Cornwallis"
       class="NU"
       d="m 150.52254,851.53905 c -0.57881,-0.22007 -2.40263,-1.47618 -2.9533,-2.0336 -0.23564,-0.23865 -0.25649,-0.31055 -0.22006,-0.75268 0.0505,-0.60967 0.95085,-2.44786 1.43695,-2.93394 0.78304,-0.78301 2.21698,-0.70742 3.2158,0.16935 0.42179,0.37 0.49918,0.70794 0.62478,2.71842 0.11857,1.89439 0.0686,2.16722 -0.47379,2.5968 -0.43334,0.34339 -1.09555,0.43914 -1.63038,0.23565 l 0,0 z"
       style="display:inline;fill:#c6e9af" />
    <path
       inkscape:connector-curvature="0"
       id="PrinceOfWales"
       class="NU"
       d="m 141.40014,871.39988 c -0.17282,-0.0856 -0.5901,-0.42407 -0.92723,-0.75217 -0.57629,-0.55998 -0.61698,-0.62677 -0.6715,-1.09833 -0.18816,-1.62587 -0.54263,-2.21947 -1.95245,-3.27004 -0.57779,-0.4306 -1.10107,-1.10082 -1.54044,-1.97305 -0.27232,-0.54062 -0.31327,-0.70265 -0.27961,-1.10684 0.0507,-0.61173 0.4567,-1.43648 0.8579,-1.74248 0.37381,-0.2851 0.48987,-0.25245 1.3013,0.36631 0.80691,0.61547 1.085,0.75592 1.26939,0.64086 0.24995,-0.15629 0.68205,-1.08379 0.72802,-1.56385 0.0392,-0.41074 0.0158,-0.47077 -0.36502,-0.93852 -0.60141,-0.73808 -0.81845,-1.21662 -0.81142,-1.78842 0.008,-0.65692 0.23866,-1.40552 0.59161,-1.91779 0.4449,-0.64534 0.53283,-0.64938 1.70399,-0.0744 0.55745,0.27357 1.07722,0.49739 1.15484,0.49739 0.0779,0 0.26202,-0.10143 0.40973,-0.22557 0.35823,-0.30148 1.34753,-0.59736 2.06902,-0.61871 0.82273,-0.0244 0.92974,0.11903 0.92774,1.24246 -0.003,0.90035 -0.0248,0.97674 -0.3507,1.1483 l -0.21504,0.1133 0.3007,0.31049 c 0.2977,0.30703 0.2992,0.31379 0.155,0.6077 -0.0802,0.16356 -0.41902,0.62256 -0.75239,1.02023 -0.33362,0.39767 -0.64939,0.80238 -0.7014,0.89983 -0.1158,0.21656 -0.0523,0.28914 0.53259,0.60717 0.41073,0.22338 0.43786,0.26228 0.54361,0.78279 0.0614,0.30123 0.27535,0.89687 0.47556,1.32369 0.567,1.20782 0.7539,3.17206 0.38059,3.99483 -0.34968,0.76995 -1.45352,1.73436 -2.15944,1.88633 -0.2178,0.0471 -0.29845,0.12211 -0.33688,0.3143 -0.0603,0.30248 -0.70014,0.96566 -1.15207,1.1943 -0.51625,0.26097 -0.8363,0.2934 -1.186,0.11984 l 0,0 z"
       style="display:inline;fill:#c6e9af" />
    <path
       inkscape:connector-curvature="0"
       id="KingWilliam"
       class="NU"
       d="m 143.82338,888.1936 c -0.64538,-0.22206 -1.28974,-0.62301 -2.0866,-1.29903 -0.32532,-0.27585 -0.77149,-0.59161 -0.99155,-0.70191 -0.45093,-0.22559 -1.17644,-0.88603 -1.17644,-1.07096 0,-0.32428 0.65893,-1.34622 1.92782,-2.98943 0.94407,-1.22292 1.2189,-1.50626 1.46033,-1.50626 0.25573,0 1.81728,1.56431 2.27851,2.28201 0.69362,1.07924 1.56558,3.32235 1.58165,4.06844 0.0106,0.48711 -0.22207,0.75615 -0.98174,1.13598 -0.65844,0.32912 -1.22493,0.35173 -2.01198,0.0812 l 0,0 z"
       style="display:inline;fill:#c6e9af" />
    <path
       inkscape:connector-curvature="0"
       id="Akimiski"
       class="NU"
       d="m 184.06883,970.22196 c -1.5789,-0.53789 -1.68741,-1.10111 -0.27658,-1.43523 0.93074,-0.21979 1.06515,-0.1811 1.62586,0.47054 1.07921,1.25507 0.5705,1.61883 -1.34928,0.96469 z"
       style="display:inline;fill:#c6e9af" />
    <g
       transform="matrix(0.25121533,0,0,0.25121533,33.414489,788.71483)"
       id="NorthwestTerritories"
       style="display:inline;fill:#c6e9af;fill-opacity:1">
      <!-- NT - Mackenzie District -->
      <path
         inkscape:connector-curvature="0"
         id="Mackenzie"
         class="NWT"
         d="m 363.328,571.233 c -1.131,-0.25 -16.393,-3.223 -33.915,-6.607 -25.37,-4.898 -38.3,-8.039 -63.484,-15.42 -36.338,-10.648 -66.211,-20.557 -89.352,-29.637 l -16.15,-6.338 -0.293,-9.947 -0.293,-9.947 -3.643,-0.59 c -2.003,-0.324 -6.331,-2.127 -9.616,-4.008 l -5.972,-3.416 0.67,-4.23 c 0.369,-2.326 1.32,-4.885 2.114,-5.684 1.24,-1.25 1.153,-1.862 -0.615,-4.344 -1.132,-1.59 -3.145,-6.085 -4.472,-9.988 -1.328,-3.904 -3.163,-8.241 -4.077,-9.637 -1.516,-2.313 -1.527,-3.507 -0.124,-13.505 0.847,-6.032 2.26,-13.747 3.141,-17.145 0.88,-3.398 1.325,-6.625 0.987,-7.172 -0.337,-0.546 -0.994,-3.188 -1.458,-5.872 -1.206,-6.965 -4.075,-17.84 -5.423,-20.551 -0.841,-1.693 -0.845,-2.932 -0.012,-4.625 0.625,-1.271 1.428,-3.353 1.784,-4.625 0.356,-1.272 1.079,-2.313 1.606,-2.313 2.682,0 5.069,-4.28 5.069,-9.09 0,-3.674 -0.539,-5.467 -2.056,-6.839 -2.764,-2.502 -2.587,-6.346 0.634,-13.773 1.648,-3.8 2.452,-7.109 2.077,-8.546 -0.336,-1.291 -3.396,-4.364 -6.8,-6.831 -3.404,-2.467 -6.188,-4.858 -6.188,-5.314 0,-3.345 15.202,-34.018 17.592,-35.495 0.597,-0.369 1.601,-0.156 2.229,0.473 1.964,1.964 2.788,1.271 2.788,-2.343 0,-4.068 0.649,-4.428 9.638,-5.349 l 6.529,-0.669 0.692,3.689 c 0.831,4.427 1.911,5.266 4.795,3.722 1.194,-0.639 8.081,-1.666 15.304,-2.283 16.168,-1.38 19.566,-0.509 19.566,5.015 0,3.037 0.329,3.472 2.62,3.472 1.441,0 4.008,-0.717 5.704,-1.594 6.306,-3.261 8.084,-0.176 8.108,14.058 0.017,10.083 1.598,10.832 8.698,4.116 3.068,-2.901 6.021,-5.275 6.563,-5.275 0.542,0 1.157,2.154 1.367,4.787 0.279,3.516 -0.12,5.424 -1.505,7.184 -3.417,4.344 0.662,6.156 5.442,2.417 5.117,-4.002 12.825,-1.306 17.095,5.98 3.372,5.753 3.045,8.657 -2.753,24.463 -3.455,9.419 -4.123,12.278 -3.286,14.07 0.907,1.941 45.334,63.47 47.502,65.788 0.437,0.467 4.649,1.686 9.361,2.708 4.712,1.022 8.702,2.259 8.868,2.748 0.165,0.488 2.268,3.891 4.672,7.56 l 4.371,6.672 25.615,13.642 c 14.088,7.503 25.829,13.857 26.093,14.121 0.263,0.262 -0.275,8.232 -1.196,17.711 -0.921,9.479 -2.917,30.299 -4.436,46.268 l -2.762,29.033 -3.68,-0.119 c -2.021,-0.068 -4.602,-0.326 -5.733,-0.576 l 0,0 z m -97.45,-46.19 c 2.362,-1.346 5.227,-2.447 6.368,-2.447 2.417,0 17.025,-7.363 20.116,-10.139 1.16,-1.043 4.027,-2.945 6.372,-4.23 3.809,-2.086 6.529,-5.539 6.529,-8.289 0,-0.539 -2.045,-0.98 -4.546,-0.98 -3.356,0 -5.349,0.678 -7.616,2.584 -4.989,4.199 -10.173,5.914 -15.47,5.119 -4.817,-0.723 -6.039,-1.809 -21.954,-19.518 -2.03,-2.26 -3.978,-3.82 -4.328,-3.471 -0.351,0.352 0.716,4.049 2.371,8.219 5.886,14.834 5.912,17.344 0.179,17.344 -1.457,0 -4.247,1.096 -6.199,2.432 -3.078,2.109 -4.404,2.363 -9.991,1.916 -7.949,-0.639 -8.336,0.596 -2.074,6.623 5.552,5.346 7.636,6.383 14.904,7.414 7.196,1.023 9.789,0.588 15.339,-2.577 l 0,0 z M 229.574,423.904 c 5.044,-1.888 5.789,-2.576 7.776,-7.196 l 2.198,-5.108 3.311,1.415 c 1.821,0.778 4.52,1.981 5.997,2.673 2.352,1.1 3.207,0.928 6.856,-1.376 4.055,-2.56 6.105,-5.81 4.898,-7.763 -0.327,-0.529 -2.322,-1.524 -4.434,-2.211 -2.112,-0.688 -6.349,-2.35 -9.415,-3.695 l -5.575,-2.445 3.263,-3.366 c 3.839,-3.961 4.158,-6.386 0.95,-7.246 -1.271,-0.341 -10.553,-0.626 -20.625,-0.634 l -18.313,-0.014 0.328,2.312 c 0.333,2.347 1.228,2.765 13.166,6.145 5.794,1.64 6.547,4.127 1.967,6.495 -4.769,2.467 -13.263,10.704 -13.263,12.862 0,2.019 4.576,6.101 6.838,6.101 0.782,0 3.744,-1.215 6.583,-2.699 2.839,-1.484 5.369,-2.491 5.622,-2.238 0.253,0.253 -0.691,2.02 -2.097,3.926 -2.304,3.123 -3.329,6.15 -2.082,6.15 0.259,-0.001 2.983,-0.94 6.051,-2.088 l 0,0 z"
         style="fill:#c6e9af;fill-opacity:1" />
      <!-- Northwest Territories - Mainland -->
      <!-- NT - Banks -->
      <path
         inkscape:connector-curvature="0"
         id="Banks"
         class="NWT"
         d="m 258.688,290.635 c -0.288,-0.465 -1.058,-3.845 -1.712,-7.511 -0.703,-3.938 -2.834,-9.733 -5.208,-14.16 l -4.019,-7.495 3.931,-4.324 c 3.427,-3.77 9.027,-11.271 21.124,-28.293 2.335,-3.287 3.292,-5.961 3.677,-10.277 0.464,-5.2 0.789,-5.872 2.988,-6.183 2.692,-0.38 13.463,2.361 17.583,4.475 1.418,0.728 4.11,3.455 5.98,6.06 3.735,5.202 7.777,7.79 12.2,7.814 4.875,0.027 5.878,1.324 9.452,12.229 3.69,11.261 2.862,13.005 -7.598,15.999 -11.024,3.155 -26.989,14.026 -32.237,21.951 -4.938,7.458 -6.052,8.199 -13.358,8.891 -3.753,0.355 -8.051,0.876 -9.552,1.157 -1.501,0.282 -2.963,0.133 -3.251,-0.333 l 0,0 z"
         style="fill:#c6e9af;fill-opacity:1" />
      <!-- Northwest Territories - Banks Island -->
      <!-- NT - Victoria -->
      <path
         inkscape:connector-curvature="0"
         id="NorthWestVictoria"
         class="NWT"
         d="m 339.69,340.909 c -4.37,-0.916 -45.247,-12.813 -45.733,-13.31 -1.292,-1.32 20.488,0.708 24.666,2.298 6.4,2.436 11.305,3.542 11.305,2.551 0,-1.815 -9.759,-9.281 -13.247,-10.135 -2.041,-0.499 -6.762,-1.62 -10.49,-2.49 -11.717,-2.735 -13.812,-3.992 -15.649,-9.385 -1.865,-5.473 -2.439,-4.951 9.289,-8.43 l 5.946,-1.764 -3.597,-0.954 c -1.979,-0.524 -4.186,-1.125 -4.905,-1.335 -0.72,-0.21 -1.559,-1.202 -1.865,-2.204 -0.306,-1.002 -1.545,-3.764 -2.753,-6.137 l -2.196,-4.315 3.696,-5.448 c 2.032,-2.996 3.975,-6.373 4.316,-7.503 1.344,-4.448 12.769,-9.674 27.18,-12.432 4.152,-0.794 7.97,-1.186 8.482,-0.869 1.405,0.869 1.119,5.829 -0.621,10.763 -0.854,2.42 -1.311,4.643 -1.016,4.938 0.296,0.295 1.942,-0.501 3.659,-1.77 l 3.12,-2.308 4.317,2.56 c 8.284,4.911 8.446,5.117 6.931,8.777 -1.647,3.977 -1.164,4.591 2.514,3.192 2.527,-0.961 2.779,-1.469 2.272,-4.59 -0.387,-2.384 -0.091,-3.906 0.922,-4.747 0.82,-0.681 1.704,-1.025 1.964,-0.766 0.444,0.444 -15.486,65.605 -16.145,66.041 -0.168,0.112 -1.231,0.009 -2.362,-0.228 l 0,0 z"
         style="fill:#c6e9af;fill-opacity:1" />
      <!-- Northwest Territories - Victoria Island -->
      <!-- NT - Borden -->
      <path
         inkscape:connector-curvature="0"
         id="NorthWestBorden"
         class="NWT"
         d="m 383.397,143.644 c -1.962,-1.362 -4.622,-2.476 -5.909,-2.476 -3.072,0 -3.032,-2.583 0.071,-4.617 2.286,-1.498 11.293,-2.575 12.387,-1.481 0.585,0.585 -1.401,9.348 -2.353,10.372 -0.345,0.373 -2.234,-0.436 -4.196,-1.798 l 0,0 z"
         style="fill:#c6e9af;fill-opacity:1" />
      <!-- Northwest Territories - Borden Island -->
      <!-- NT - Mackenzie King -->
      <path
         inkscape:connector-curvature="0"
         id="MackenzieKing"
         class="NWT"
         d="m 371.326,165.883 c -1.185,-1.104 -2.702,-3.669 -3.373,-5.702 -0.671,-2.033 -2.333,-4.809 -3.693,-6.169 -2.754,-2.754 -3.376,-7.706 -0.968,-7.706 0.828,0 1.99,0.905 2.582,2.012 0.996,1.861 1.852,1.965 11.4,1.383 l 10.324,-0.629 -0.677,2.985 c -3.474,15.329 -3.766,15.832 -9.186,15.832 -2.8,0 -4.992,-0.686 -6.409,-2.006 l 0,0 z"
         style="fill:#c6e9af;fill-opacity:1" />
      <!-- Northwest Territories - Mackenzie King Island -->
      <!-- NT - Prince Patrick -->
      <path
         inkscape:connector-curvature="0"
         id="PrincePatrick"
         class="NWT"
         d="m 314.743,186.434 c -1.122,-1.972 -2.598,-3.119 -4.019,-3.123 -4.337,-0.013 -7.518,-1.885 -7.518,-4.427 0,-3.367 3.438,-6.109 11.744,-9.368 4.347,-1.705 9.144,-4.613 12.317,-7.466 2.858,-2.57 6.275,-5.083 7.592,-5.583 3.548,-1.349 13.95,-1.104 15.868,0.374 3.034,2.339 2.718,6.684 -0.761,10.437 -1.413,1.525 -2.569,3.901 -2.569,5.281 0,1.525 -1.265,3.62 -3.227,5.343 -1.774,1.559 -3.856,3.446 -4.626,4.193 -3.835,3.725 -7.142,-1.796 -3.973,-6.633 1.608,-2.455 1.6,-2.533 -0.178,-1.558 -1.029,0.565 -4.415,3.64 -7.523,6.834 -3.109,3.194 -6.936,6.483 -8.504,7.309 -2.744,1.447 -2.915,1.388 -4.623,-1.613 l 0,0 z"
         style="fill:#c6e9af;fill-opacity:1" />
      <!-- Northwest Territories - Prince Patrick Island -->
      <!-- NT - Eglinton -->
      <path
         inkscape:connector-curvature="0"
         id="Eglinton"
         class="NWT"
         d="m 320.521,198.272 c -1.626,-3.57 -0.498,-5.521 4.51,-7.794 5.392,-2.447 7.848,-2.547 8.689,-0.354 0.45,1.173 -0.88,3.024 -4.399,6.127 -5.839,5.145 -7.231,5.464 -8.8,2.021 l 0,0 z"
         style="fill:#c6e9af;fill-opacity:1" />
      <!-- Northwest Territories - Eglinton Island -->
      <!-- NT - Melville -->
      <path
         inkscape:connector-curvature="0"
         id="NorthWestMelville"
         class="NWT"
         d="m 345.448,234.285 c -4.279,-4.416 -3.883,-6.795 1.442,-8.658 8.675,-3.035 9.714,-3.535 9.17,-4.417 -0.309,-0.5 -1.588,-0.908 -2.842,-0.908 -1.254,0 -3.3,-0.714 -4.546,-1.587 -1.698,-1.189 -2.769,-1.318 -4.272,-0.514 -4.159,2.226 -6.935,1.244 -11.809,-4.176 -5.055,-5.623 -5.785,-8.219 -2.921,-10.377 1.888,-1.423 3.546,-3.993 6.589,-10.214 2.495,-5.101 9.024,-10.129 13.152,-10.129 4.374,0 7.235,1.671 7.235,4.226 0,1.154 1.394,3.492 3.097,5.194 4.071,4.072 4.78,5.528 5.668,11.647 0.887,6.118 1.967,7.708 5.235,7.708 3.021,0 3.108,1.842 0.563,11.79 -1.779,6.954 -1.998,7.264 -7.427,10.53 -7.889,4.746 -13.657,4.71 -18.334,-0.115 l 0,0 z"
         style="fill:#c6e9af;fill-opacity:1" />
      <!-- Northwest Territories - Melville Island -->
      <!-- NT -->
    </g>
    <text
       xml:space="preserve"
       style="font-style:normal;font-weight:normal;font-size:10.40222931px;line-height:150%;font-family:sans-serif;letter-spacing:0px;word-spacing:0px;fill:#000000;fill-opacity:1;stroke:none;stroke-width:4;stroke-linecap:butt;stroke-linejoin:miter;stroke-miterlimit:4;stroke-dasharray:none;stroke-opacity:1"
       x="93.189522"
       y="971.64648"
       id="text4828-9-2-9-4"
       sodipodi:linespacing="150%"><tspan
         sodipodi:role="line"
         x="93.189522"
         y="971.64648"
         style="font-style:normal;font-variant:normal;font-weight:normal;font-stretch:normal;font-size:8.32178307px;line-height:150%;font-family:Ubuntu;-inkscape-font-specification:Ubuntu;stroke:#ffffff;stroke-width:0.66574275;stroke-miterlimit:4;stroke-dasharray:none;stroke-opacity:1"
         id="tspan4890-9-5-9-5">Calgary</tspan></text>
    <text
       xml:space="preserve"
       style="font-style:normal;font-weight:normal;font-size:10.40222931px;line-height:150%;font-family:sans-serif;letter-spacing:0px;word-spacing:0px;fill:#000000;fill-opacity:1;stroke:none;stroke-width:4;stroke-linecap:butt;stroke-linejoin:miter;stroke-miterlimit:4;stroke-dasharray:none;stroke-opacity:1"
       x="95.96595"
       y="959.19049"
       id="text4828-9-2-7"
       sodipodi:linespacing="150%"><tspan
         sodipodi:role="line"
         x="95.96595"
         y="959.19049"
         style="font-style:normal;font-variant:normal;font-weight:normal;font-stretch:normal;font-size:8.32178307px;line-height:150%;font-family:Ubuntu;-inkscape-font-specification:Ubuntu;fill:#ffffff;fill-opacity:1;stroke:#ffffff;stroke-width:0.66574275;stroke-miterlimit:4;stroke-dasharray:none;stroke-opacity:1"
         id="tspan4890-9-5-4">Edmonton</tspan></text>
    <circle
       style="opacity:1;fill:#ffffff;fill-opacity:1;stroke:#ff0000;stroke-width:1.25607693;stroke-linecap:round;stroke-linejoin:miter;stroke-miterlimit:4;stroke-dasharray:none;stroke-dashoffset:0;stroke-opacity:1"
       id="path4404"
       cx="55.825817"
       cy="970.11523"
       r="3.1061938" />
    <circle
       style="opacity:1;fill:#ffffff;fill-opacity:1;stroke:#ff0000;stroke-width:1.25607693;stroke-linecap:round;stroke-linejoin:miter;stroke-miterlimit:4;stroke-dasharray:none;stroke-dashoffset:0;stroke-opacity:1"
       id="path4404-8"
       cx="87.492889"
       cy="968.78406"
       r="3.1061938" />
    <circle
       style="opacity:1;fill:#ffffff;fill-opacity:1;stroke:#ff0000;stroke-width:1.25607693;stroke-linecap:round;stroke-linejoin:miter;stroke-miterlimit:4;stroke-dasharray:none;stroke-dashoffset:0;stroke-opacity:1"
       id="path4404-6"
       cx="90.478035"
       cy="956.11713"
       r="3.1061938" />
    <circle
       style="opacity:1;fill:#ffffff;fill-opacity:1;stroke:#ff0000;stroke-width:1.25607693;stroke-linecap:round;stroke-linejoin:miter;stroke-miterlimit:4;stroke-dasharray:none;stroke-dashoffset:0;stroke-opacity:1"
       id="path4404-2"
       cx="134.74976"
       cy="984.09656"
       r="3.1061938" />
    <circle
       style="opacity:1;fill:#ffffff;fill-opacity:1;stroke:#ff0000;stroke-width:1.25607693;stroke-linecap:round;stroke-linejoin:miter;stroke-miterlimit:4;stroke-dasharray:none;stroke-dashoffset:0;stroke-opacity:1"
       id="path4404-4"
       cx="195.68526"
       cy="1012.5129"
       r="3.1061938" />
    <circle
       style="opacity:1;fill:#ffffff;fill-opacity:1;stroke:#ff0000;stroke-width:1.25607693;stroke-linecap:round;stroke-linejoin:miter;stroke-miterlimit:4;stroke-dasharray:none;stroke-dashoffset:0;stroke-opacity:1"
       id="path4404-7"
       cx="203.75327"
       cy="1002.9926"
       r="3.1061938" />
    <circle
       style="opacity:1;fill:#ffffff;fill-opacity:1;stroke:#ff0000;stroke-width:1.25607693;stroke-linecap:round;stroke-linejoin:miter;stroke-miterlimit:4;stroke-dasharray:none;stroke-dashoffset:0;stroke-opacity:1"
       id="path4404-9"
       cx="212.95085"
       cy="1000.2493"
       r="3.1061938" />
    <circle
       style="opacity:1;fill:#ffffff;fill-opacity:1;stroke:#ff0000;stroke-width:1.25607693;stroke-linecap:round;stroke-linejoin:miter;stroke-miterlimit:4;stroke-dasharray:none;stroke-dashoffset:0;stroke-opacity:1"
       id="path4404-3"
       cx="221.3416"
       cy="990.89038"
       r="3.1061938" />
    <text
       xml:space="preserve"
       style="font-style:normal;font-weight:normal;font-size:10.40222931px;line-height:150%;font-family:sans-serif;letter-spacing:0px;word-spacing:0px;fill:#000000;fill-opacity:1;stroke:none;stroke-width:1px;stroke-linecap:butt;stroke-linejoin:miter;stroke-opacity:1"
       x="248.02217"
       y="1004.9062"
       id="text4828"
       sodipodi:linespacing="150%"><tspan
         sodipodi:role="line"
         id="tspan4830"
         x="248.02217"
         y="1004.9062"
         style="font-style:normal;font-variant:normal;font-weight:normal;font-stretch:normal;font-size:8.32178307px;line-height:150%;font-family:Ubuntu;-inkscape-font-specification:Ubuntu">Quebec City</tspan><tspan
         sodipodi:role="line"
         x="248.02217"
         y="1017.3889"
         style="font-style:normal;font-variant:normal;font-weight:normal;font-stretch:normal;font-size:8.32178307px;line-height:150%;font-family:Ubuntu;-inkscape-font-specification:Ubuntu"
         id="tspan4886">Montreal</tspan><tspan
         sodipodi:role="line"
         x="248.02217"
         y="1029.8716"
         style="font-style:normal;font-variant:normal;font-weight:normal;font-stretch:normal;font-size:8.32178307px;line-height:150%;font-family:Ubuntu;-inkscape-font-specification:Ubuntu"
         id="tspan4888">Ottawa</tspan><tspan
         sodipodi:role="line"
         x="248.02217"
         y="1042.3542"
         style="font-style:normal;font-variant:normal;font-weight:normal;font-stretch:normal;font-size:8.32178307px;line-height:150%;font-family:Ubuntu;-inkscape-font-specification:Ubuntu"
         id="tspan4890">Toronto</tspan></text>
    <path
       style="fill:none;fill-rule:evenodd;stroke:#000000;stroke-width:0.66574275;stroke-linecap:butt;stroke-linejoin:miter;stroke-miterlimit:4;stroke-dasharray:none;stroke-opacity:1"
       d="m 224.58946,994.87841 7.32317,7.32319 14.31346,0"
       id="path4892"
       inkscape:connector-curvature="0" />
    <path
       style="fill:none;fill-rule:evenodd;stroke:#000000;stroke-width:0.66574275;stroke-linecap:butt;stroke-linejoin:miter;stroke-miterlimit:4;stroke-dasharray:none;stroke-opacity:1"
       d="m 216.10123,1004.1988 11.06798,11.0679 19.55619,0"
       id="path4894"
       inkscape:connector-curvature="0" />
    <path
       style="fill:none;fill-rule:evenodd;stroke:#000000;stroke-width:0.66574275;stroke-linecap:butt;stroke-linejoin:miter;stroke-miterlimit:4;stroke-dasharray:none;stroke-opacity:1"
       d="m 207.28015,1007.361 19.55618,19.5563 19.05689,0"
       id="path4896"
       inkscape:connector-curvature="0" />
    <path
       style="fill:none;fill-rule:evenodd;stroke:#000000;stroke-width:0.66574275;stroke-linecap:butt;stroke-linejoin:miter;stroke-miterlimit:4;stroke-dasharray:none;stroke-opacity:1"
       d="m 199.12479,1016.848 22.13595,22.1358 24.13318,0"
       id="path4898"
       inkscape:connector-curvature="0" />
    <text
       xml:space="preserve"
       style="font-style:normal;font-weight:normal;font-size:10.40222931px;line-height:150%;font-family:sans-serif;letter-spacing:0px;word-spacing:0px;fill:#000000;fill-opacity:1;stroke:none;stroke-width:1px;stroke-linecap:butt;stroke-linejoin:miter;stroke-opacity:1"
       x="130.855"
       y="997.38348"
       id="text4828-9"
       sodipodi:linespacing="150%"><tspan
         sodipodi:role="line"
         x="130.855"
         y="997.38348"
         style="font-style:normal;font-variant:normal;font-weight:normal;font-stretch:normal;font-size:8.32178307px;line-height:150%;font-family:Ubuntu;-inkscape-font-specification:Ubuntu"
         id="tspan4890-9">Winnipeg</tspan></text>
    <text
       xml:space="preserve"
       style="font-style:normal;font-weight:normal;font-size:10.40222931px;line-height:150%;font-family:sans-serif;letter-spacing:0px;word-spacing:0px;fill:#000000;fill-opacity:1;stroke:none;stroke-width:1px;stroke-linecap:butt;stroke-linejoin:miter;stroke-opacity:1"
       x="96.016357"
       y="959.2113"
       id="text4828-9-2"
       sodipodi:linespacing="150%"><tspan
         sodipodi:role="line"
         x="96.016357"
         y="959.2113"
         style="font-style:normal;font-variant:normal;font-weight:normal;font-stretch:normal;font-size:8.32178307px;line-height:150%;font-family:Ubuntu;-inkscape-font-specification:Ubuntu"
         id="tspan4890-9-5">Edmonton</tspan></text>
    <text
       xml:space="preserve"
       style="font-style:normal;font-weight:normal;font-size:10.40222931px;line-height:150%;font-family:sans-serif;letter-spacing:0px;word-spacing:0px;fill:#000000;fill-opacity:1;stroke:none;stroke-width:1px;stroke-linecap:butt;stroke-linejoin:miter;stroke-opacity:1"
       x="93.194298"
       y="971.62152"
       id="text4828-9-2-9"
       sodipodi:linespacing="150%"><tspan
         sodipodi:role="line"
         x="93.194298"
         y="971.62152"
         style="font-style:normal;font-variant:normal;font-weight:normal;font-stretch:normal;font-size:8.32178307px;line-height:150%;font-family:Ubuntu;-inkscape-font-specification:Ubuntu"
         id="tspan4890-9-5-9">Calgary</tspan></text>
    <text
       xml:space="preserve"
       style="font-style:normal;font-weight:normal;font-size:10.40222931px;line-height:150%;font-family:sans-serif;letter-spacing:0px;word-spacing:0px;fill:#000000;fill-opacity:1;stroke:none;stroke-width:1px;stroke-linecap:butt;stroke-linejoin:miter;stroke-opacity:1"
       x="18.661606"
       y="981.5542"
       id="text4828-9-9"
       sodipodi:linespacing="150%"><tspan
         sodipodi:role="line"
         x="18.661606"
         y="981.5542"
         style="font-style:normal;font-variant:normal;font-weight:normal;font-stretch:normal;font-size:8.32178307px;line-height:150%;font-family:Ubuntu;-inkscape-font-specification:Ubuntu"
         id="tspan4890-9-3">Vancouver</tspan></text>
  </g>
</svg>
